<svg width="429" height="53.63066332781533" viewBox="0 0 370.18518518518516 46.278035048045766" class="css-1j8o68f"><defs id="SvgjsDefs1408"></defs><g id="SvgjsG1409" featurekey="symbolFeature-0" transform="matrix(0.16311106225516095,0,0,0.16311106225516095,-9.34916390704219,-18.617331035909015)" fill="#000000"><g xmlns="http://www.w3.org/2000/svg"><g><g><path d="M410.018,397.86H101.982c-1.146,0-2.242-0.477-3.024-1.315l-40.531-43.493c-1.122-1.205-1.422-2.959-0.766-4.468     c0.656-1.509,2.145-2.485,3.791-2.485h389.098c1.646,0,3.134,0.977,3.791,2.484c0.656,1.51,0.355,3.264-0.767,4.469     l-40.531,43.493C412.261,397.384,411.165,397.86,410.018,397.86z M103.781,389.592H408.22l32.826-35.225H70.954L103.781,389.592z     "></path></g><g><path d="M416.092,354.367H95.78c-2.283,0-4.134-1.852-4.134-4.135V190.766c0-6.28,5.125-11.39,11.423-11.39h43.687     c2.283,0,4.133,1.851,4.133,4.134v39.36h39.565c1.373,0,2.656,0.681,3.425,1.818c0.769,1.138,0.923,2.583,0.411,3.856     l-9.85,24.517l47.53-29.568c0.655-0.408,1.412-0.624,2.184-0.624h126.955v-39.36c0-2.283,1.852-4.134,4.134-4.134h43.692     c6.3,0,11.426,5.109,11.426,11.39v159.332C420.361,352.451,418.445,354.367,416.092,354.367z M99.914,346.099h312.179V190.766     c0-1.692-1.446-3.122-3.157-3.122h-39.558v39.359c0,2.283-1.852,4.134-4.135,4.134H235.335l-57.259,35.621     c-1.518,0.943-3.471,0.805-4.841-0.344c-1.37-1.149-1.845-3.049-1.179-4.708l12.282-30.569h-37.583     c-2.283,0-4.134-1.851-4.134-4.134v-39.359h-39.553c-1.74,0-3.155,1.4-3.155,3.122V346.099z"></path></g><g><path d="M387.09,354.367H124.909c-2.283,0-4.134-1.852-4.134-4.135V212.503c0-2.283,1.851-4.133,4.134-4.133h21.847     c2.283,0,4.133,1.851,4.133,4.133v10.366h39.565c1.373,0,2.656,0.681,3.425,1.818c0.769,1.138,0.923,2.583,0.411,3.856     l-9.85,24.517l47.53-29.568c0.655-0.408,1.412-0.624,2.184-0.624h126.955v-10.366c0-2.283,1.852-4.133,4.134-4.133h21.847     c2.283,0,4.134,1.851,4.134,4.133v137.729C391.224,352.516,389.373,354.367,387.09,354.367z M129.043,346.099h253.912V216.637     h-13.577v10.366c0,2.283-1.852,4.134-4.135,4.134H235.336l-57.259,35.621c-1.518,0.943-3.471,0.805-4.841-0.344     c-1.37-1.149-1.845-3.049-1.179-4.708l12.282-30.569h-37.583c-2.283,0-4.134-1.851-4.134-4.134v-10.366h-13.58V346.099z"></path></g><g><path d="M175.894,267.381c-0.95,0-1.895-0.326-2.658-0.967c-1.37-1.149-1.845-3.049-1.179-4.708l12.282-30.569h-37.583     c-2.283,0-4.134-1.851-4.134-4.134v-108.73c0-2.283,1.851-4.134,4.134-4.134h218.487c2.283,0,4.135,1.851,4.135,4.134v108.73     c0,2.283-1.852,4.134-4.135,4.134H235.336l-57.259,35.621C177.405,267.175,176.648,267.381,175.894,267.381z M150.89,222.87     h39.565c1.373,0,2.656,0.681,3.425,1.818c0.769,1.138,0.923,2.583,0.411,3.856l-9.85,24.517l47.53-29.568     c0.655-0.408,1.412-0.624,2.184-0.624h126.955V122.407H150.89V222.87z"></path></g><g><path d="M355.686,256.331h-94.681c-2.283,0-4.134-1.851-4.134-4.134c0-2.283,1.851-4.134,4.134-4.134h94.681     c2.282,0,4.134,1.851,4.134,4.134C359.819,254.479,357.968,256.331,355.686,256.331z"></path></g><g><path d="M355.686,281.881h-94.681c-2.283,0-4.134-1.852-4.134-4.134c0-2.283,1.851-4.135,4.134-4.135h94.681     c2.282,0,4.134,1.852,4.134,4.135C359.819,280.029,357.968,281.881,355.686,281.881z"></path></g><g><path d="M355.686,307.431h-94.681c-2.283,0-4.134-1.852-4.134-4.135c0-2.282,1.851-4.134,4.134-4.134h94.681     c2.282,0,4.134,1.852,4.134,4.134C359.819,305.579,357.968,307.431,355.686,307.431z"></path></g><g><path d="M357.959,332.618H234.155c-2.283,0-4.134-1.852-4.134-4.135v-72.487c0-2.283,1.851-4.134,4.134-4.134     c2.283,0,4.134,1.851,4.134,4.134v68.353h119.67c2.283,0,4.135,1.851,4.135,4.134S360.242,332.618,357.959,332.618z"></path></g><rect x="205" y="161.767" style="" width="14.545" height="14.476" fill-rule="evenodd" clip-rule="evenodd"></rect><rect x="234.155" y="161.767" style="" width="14.544" height="14.476" fill-rule="evenodd" clip-rule="evenodd"></rect><rect x="263.309" y="161.767" style="" width="14.545" height="14.476" fill-rule="evenodd" clip-rule="evenodd"></rect><rect x="292.457" y="161.767" style="" width="14.543" height="14.476" fill-rule="evenodd" clip-rule="evenodd"></rect><rect x="321.61" y="161.767" style="" width="14.543" height="14.476" fill-rule="evenodd" clip-rule="evenodd"></rect><rect x="175.893" y="161.767" style="" width="14.544" height="14.476" fill-rule="evenodd" clip-rule="evenodd"></rect></g></g></g><g id="SvgjsG1410" featurekey="nameFeature-0" transform="matrix(1.0908006589135715,0,0,1.0908006589135715,83.29562449058183,-3.649916403693256)" fill="#000000"><path d="M1.5625 7.93 l18.887 17.988 l0 -17.402 l6.3086 0 l0 32.07 l-18.887 -18.008 l0 17.422 l-6.3086 0 l0 -32.07 z M40.5863125 29.59 l5.5664 0 l-2.7734 -6.543 z M38.0078125 35.1562 l-0.078125 0.23438 l-2.0508 4.5313 l-1.0938 0 l-0.25391 0 l-4.1016 0 l-1.3477 0 l14.277 -31.992 l14.316 31.992 l-1.3477 0 l-4.1016 0 l-0.27344 0 l-1.0938 0 l-2.0313 -4.5508 l-0.097656 -0.21484 l-10.723 0 z M79.57075 8.515999999999998 l-14.18 32.07 l-14.141 -32.07 l1.25 0 l4.1406 0 l0.25391 0 l1.0156 0 l7.4609 17.168 l7.4609 -17.168 l1.3281 0 l5.4102 0 z M89.6679625 8.594000000000001 l0 -0.019531 c4.3164 0 8.3984 1.543 11.484 4.6289 c5.625 5.625 5.625 16.582 0 22.188 c-3.0859 3.0664 -7.168 4.6094 -11.484 4.6094 l-7.7734 0 l0 -31.406 l7.7734 0 z M89.6874625 33.6914 l0.019531 0 c2.5781 0 4.9609 -0.72266 6.7969 -2.5586 s2.5586 -4.2578 2.5586 -6.8555 c0 -2.5781 -0.72266 -5 -2.5781 -6.8555 c-1.8359 -1.8555 -4.2578 -2.5781 -6.8359 -2.5781 l-1.4453 0 l0 18.848 l1.4844 0 z M107.71484375 8.515999999999998 l18.887 0 l0 6.2891 l-12.578 0 l0 6.3086 l9.4336 0 l0 6.2891 l-9.4336 0 l0 6.2891 l12.578 0 l0 6.3086 l-12.578 0 l-6.3086 0 l0 -31.484 z M129.53125 8.515999999999998 l18.887 0 l0 6.2891 l-12.578 0 l0 6.3086 l9.4336 0 l0 6.2891 l-9.4336 0 l0 6.2891 l12.578 0 l0 6.3086 l-12.578 0 l-6.3086 0 l0 -31.484 z M151.34765625 40 l0 -9.4531 l0 -11.016 l0 -11.016 l6.3086 0 l4.707 0 c3.0273 0 5.625 1.0742 7.793 3.2422 s3.2422 4.7656 3.2422 7.793 s-1.0742 5.625 -3.2422 7.7734 s-4.7656 3.2227 -7.793 3.2227 l-4.707 0 l0 9.4531 l-6.3086 0 z M157.65625625 24.258 l4.707 0.019531 c1.3086 0 2.4219 -0.46875 3.3398 -1.3867 s1.3867 -2.0313 1.3867 -3.3398 c0 -1.2891 -0.46875 -2.4023 -1.3867 -3.3398 s-2.0313 -1.4063 -3.3398 -1.4063 l-4.707 0 l0 4.7266 l0 4.7266 z M195.6054625 8.594000000000001 l0 -0.019531 c4.3164 0 8.3984 1.543 11.484 4.6289 c5.625 5.625 5.625 16.582 0 22.188 c-3.0859 3.0664 -7.168 4.6094 -11.484 4.6094 l-7.7734 0 l0 -31.406 l7.7734 0 z M195.6249625 33.6914 l0.019531 0 c2.5781 0 4.9609 -0.72266 6.7969 -2.5586 s2.5586 -4.2578 2.5586 -6.8555 c0 -2.5781 -0.72266 -5 -2.5781 -6.8555 c-1.8359 -1.8555 -4.2578 -2.5781 -6.8359 -2.5781 l-1.4453 0 l0 18.848 l1.4844 0 z M213.65234375 8.515999999999998 l18.887 0 l0 6.2891 l-12.578 0 l0 6.3086 l9.4336 0 l0 6.2891 l-9.4336 0 l0 6.2891 l12.578 0 l0 6.3086 l-12.578 0 l-6.3086 0 l0 -31.484 z M263.00825 8.515999999999998 l-14.18 32.07 l-14.141 -32.07 l1.25 0 l4.1406 0 l0.25391 0 l1.0156 0 l7.4609 17.168 l7.4609 -17.168 l1.3281 0 l5.4102 0 z"></path></g></svg>