<svg width="728" height="220" viewBox="0 0 728 220" fill="none" xmlns="http://www.w3.org/2000/svg">
<rect width="728" height="220" fill="#F5F5F5"/>
<rect width="728" height="220" fill="white"/>
<rect x="88.0714" y="153.279" width="21.6385" height="6.04138" transform="rotate(-5.24845 88.0714 153.279)" stroke="black" stroke-width="3.7"/>
<rect x="94.9824" y="139.54" width="30.072" height="38.4359" transform="rotate(-45.1863 94.9824 139.54)" fill="#F4F3F8" stroke="black" stroke-width="3.7"/>
<rect x="86.0786" y="149.999" width="14.0371" height="6.04138" transform="rotate(85.1892 86.0786 149.999)" stroke="black" stroke-width="3.7"/>
<rect x="121.676" y="121.17" width="8.83231" height="16.635" transform="rotate(-45.1863 121.676 121.17)" stroke="black" stroke-width="3.7"/>
<rect x="86.6163" y="137.587" width="39.4281" height="6.04138" transform="rotate(-45.1863 86.6163 137.587)" stroke="black" stroke-width="3.7"/>
<path d="M72.2854 152.338C72.2854 152.338 63.564 148.991 61.7856 151.835C60.0072 154.678 61.2138 157.807 64.6501 158.639C68.0864 159.47 72.2854 152.338 72.2854 152.338Z" stroke="black" stroke-width="3.7"/>
<path d="M64.0557 164.827C64.0557 164.827 54.7398 164.137 53.8567 167.372C52.9736 170.608 55.0312 173.256 58.5612 173.061C62.0913 172.867 64.0557 164.827 64.0557 164.827Z" stroke="black" stroke-width="3.7"/>
<path d="M75.3839 167.491C75.3839 167.491 66.3642 169.922 66.6011 173.267C66.838 176.613 69.6558 178.432 72.9228 177.08C76.1897 175.729 75.3839 167.491 75.3839 167.491Z" stroke="black" stroke-width="3.7"/>
<path d="M394.364 111.801C391.95 109.807 389.122 108.38 386.089 107.623C383.055 106.865 379.891 106.798 376.828 107.425C372.749 108.252 369.007 110.278 366.076 113.244C363.146 116.21 361.159 119.984 360.367 124.086C359.789 127.162 359.894 130.328 360.675 133.358C361.455 136.388 362.892 139.208 364.883 141.617C366.73 143.71 367.789 146.387 367.876 149.183V157.091C367.876 159.189 368.705 161.2 370.182 162.684C371.659 164.167 373.663 165 375.751 165H386.252C388.341 165 390.344 164.167 391.821 162.684C393.298 161.2 394.128 159.189 394.128 157.091V149.684C394.216 146.597 395.345 143.632 397.331 141.274C400.809 136.953 402.449 131.427 401.894 125.899C401.338 120.37 398.632 115.285 394.364 111.749V111.801ZM388.877 157.091C388.877 157.791 388.601 158.461 388.109 158.955C387.616 159.45 386.948 159.728 386.252 159.728H375.751C375.055 159.728 374.387 159.45 373.895 158.955C373.403 158.461 373.126 157.791 373.126 157.091V154.455H388.877V157.091ZM393.262 138.005C390.622 141.149 389.082 145.076 388.877 149.183H383.627V141.274C383.627 140.575 383.35 139.904 382.858 139.41C382.366 138.916 381.698 138.638 381.002 138.638C380.305 138.638 379.638 138.916 379.145 139.41C378.653 139.904 378.377 140.575 378.377 141.274V149.183H373.126C373.057 145.144 371.569 141.26 368.926 138.216C367.182 136.118 366.009 133.601 365.522 130.912C365.034 128.223 365.249 125.453 366.146 122.872C367.042 120.291 368.589 117.988 370.636 116.186C372.683 114.385 375.16 113.146 377.825 112.592C380.116 112.119 382.483 112.163 384.754 112.723C387.026 113.282 389.144 114.342 390.957 115.827C392.769 117.311 394.23 119.182 395.232 121.304C396.235 123.425 396.754 125.745 396.753 128.093C396.773 131.704 395.538 135.209 393.262 138.005V138.005Z" fill="black"/>
<path d="M673.098 122.604L658.353 107.843C657.81 107.303 657.076 107 656.311 107C655.545 107 654.811 107.303 654.268 107.843C653.997 108.113 653.781 108.434 653.634 108.787C653.487 109.14 653.411 109.519 653.411 109.902C653.411 110.285 653.487 110.664 653.634 111.017C653.781 111.371 653.997 111.692 654.268 111.961L659.454 117.268L643.753 133.101L640.856 130.201C640.048 129.39 639.089 128.747 638.032 128.308C636.976 127.869 635.843 127.643 634.7 127.643C633.556 127.643 632.423 127.869 631.367 128.308C630.31 128.747 629.351 129.39 628.544 130.201L618.549 140.119C617.739 140.929 617.096 141.892 616.659 142.953C616.221 144.013 615.997 145.149 616 146.296V156.3C616 158.608 616.916 160.82 618.545 162.452C620.175 164.083 622.386 165 624.691 165H634.685C635.831 165.003 636.966 164.779 638.025 164.341C639.084 163.903 640.046 163.26 640.856 162.448L650.763 152.501C651.573 151.693 652.216 150.733 652.655 149.675C653.093 148.618 653.319 147.484 653.319 146.339C653.319 145.194 653.093 144.06 652.655 143.003C652.216 141.946 651.573 140.985 650.763 140.177L647.866 137.277L663.683 121.502L668.985 126.809C669.254 127.08 669.574 127.296 669.927 127.443C670.28 127.59 670.659 127.666 671.042 127.666C671.424 127.666 671.803 127.59 672.156 127.443C672.509 127.296 672.829 127.08 673.098 126.809C673.383 126.538 673.61 126.212 673.765 125.85C673.92 125.489 674 125.099 674 124.706C674 124.313 673.92 123.924 673.765 123.562C673.61 123.201 673.383 122.875 673.098 122.604V122.604ZM646.707 148.384L636.742 158.359C636.471 158.628 636.15 158.841 635.797 158.985C635.444 159.129 635.066 159.202 634.685 159.2H624.691C623.922 159.2 623.186 158.895 622.642 158.351C622.099 157.807 621.794 157.069 621.794 156.3V146.296C621.792 145.914 621.865 145.536 622.009 145.182C622.153 144.829 622.365 144.508 622.634 144.237L632.599 134.261C633.142 133.721 633.876 133.418 634.642 133.418C635.407 133.418 636.141 133.721 636.684 134.261L639.581 137.161L637.003 139.771C636.463 140.314 636.16 141.049 636.16 141.815C636.16 142.582 636.463 143.316 637.003 143.86C637.287 144.143 637.627 144.364 638.001 144.509C638.375 144.653 638.775 144.719 639.175 144.701C639.935 144.698 640.664 144.396 641.203 143.86L643.81 141.279L646.707 144.179C646.992 144.45 647.219 144.776 647.374 145.137C647.529 145.499 647.609 145.888 647.609 146.281C647.609 146.675 647.529 147.064 647.374 147.425C647.219 147.787 646.992 148.113 646.707 148.384Z" fill="black"/>
<path d="M367.77 53.8512C368.903 52.9261 369.73 51.6576 370.136 50.222C370.542 48.7865 370.507 47.2553 370.035 45.8416C369.564 44.4278 368.679 43.2018 367.505 42.3341C366.33 41.4663 364.925 41 363.483 41C362.041 41 360.635 41.4663 359.461 42.3341C358.287 43.2018 357.402 44.4278 356.93 45.8416C356.459 47.2553 356.423 48.7865 356.829 50.222C357.235 51.6576 358.062 52.9261 359.195 53.8512C357.254 54.6584 355.56 55.9972 354.294 57.7249C353.028 59.4525 352.238 61.5043 352.007 63.6615C351.99 63.819 352.004 63.9784 352.046 64.1305C352.089 64.2827 352.16 64.4246 352.256 64.5482C352.448 64.7979 352.729 64.9578 353.036 64.9928C353.342 65.0277 353.649 64.9349 353.89 64.7348C354.131 64.5346 354.285 64.2435 354.318 63.9254C354.572 61.581 355.649 59.4158 357.344 57.8434C359.039 56.2711 361.233 55.4019 363.506 55.4019C365.779 55.4019 367.973 56.2711 369.668 57.8434C371.363 59.4158 372.44 61.581 372.694 63.9254C372.725 64.2201 372.861 64.4922 373.074 64.6894C373.287 64.8865 373.564 64.9946 373.849 64.9928H373.976C374.279 64.9566 374.556 64.7976 374.747 64.5505C374.937 64.3034 375.026 63.9882 374.993 63.6735C374.762 61.5102 373.967 59.4531 372.695 57.7228C371.422 55.9925 369.72 54.6541 367.77 53.8512V53.8512ZM363.483 52.9997C362.569 52.9997 361.675 52.7183 360.915 52.1912C360.154 51.6641 359.562 50.9148 359.212 50.0383C358.862 49.1617 358.771 48.1971 358.949 47.2665C359.127 46.336 359.568 45.4812 360.214 44.8103C360.861 44.1394 361.684 43.6825 362.581 43.4974C363.478 43.3123 364.407 43.4073 365.252 43.7704C366.097 44.1335 366.819 44.7483 367.327 45.5372C367.834 46.3261 368.106 47.2536 368.106 48.2024C368.106 49.4747 367.619 50.6949 366.752 51.5946C365.885 52.4943 364.709 52.9997 363.483 52.9997Z" fill="black"/>
<path d="M310.812 47H307.25V45.8C307.25 44.527 306.75 43.3061 305.859 42.4059C304.968 41.5057 303.76 41 302.5 41C301.24 41 300.032 41.5057 299.141 42.4059C298.25 43.3061 297.75 44.527 297.75 45.8V47H294.188C293.873 47 293.571 47.1264 293.348 47.3515C293.125 47.5765 293 47.8817 293 48.2V61.4C293 62.3548 293.375 63.2705 294.043 63.9456C294.712 64.6207 295.618 65 296.562 65H308.438C309.382 65 310.288 64.6207 310.957 63.9456C311.625 63.2705 312 62.3548 312 61.4V48.2C312 47.8817 311.875 47.5765 311.652 47.3515C311.429 47.1264 311.127 47 310.812 47ZM300.125 45.8C300.125 45.1635 300.375 44.553 300.821 44.1029C301.266 43.6529 301.87 43.4 302.5 43.4C303.13 43.4 303.734 43.6529 304.179 44.1029C304.625 44.553 304.875 45.1635 304.875 45.8V47H300.125V45.8ZM309.625 61.4C309.625 61.7183 309.5 62.0235 309.277 62.2485C309.054 62.4736 308.752 62.6 308.438 62.6H296.562C296.248 62.6 295.946 62.4736 295.723 62.2485C295.5 62.0235 295.375 61.7183 295.375 61.4V49.4H297.75V50.6C297.75 50.9183 297.875 51.2235 298.098 51.4485C298.321 51.6736 298.623 51.8 298.938 51.8C299.252 51.8 299.554 51.6736 299.777 51.4485C300 51.2235 300.125 50.9183 300.125 50.6V49.4H304.875V50.6C304.875 50.9183 305 51.2235 305.223 51.4485C305.446 51.6736 305.748 51.8 306.062 51.8C306.377 51.8 306.679 51.6736 306.902 51.4485C307.125 51.2235 307.25 50.9183 307.25 50.6V49.4H309.625V61.4Z" fill="black"/>
<path d="M438.663 61.9767L434.214 57.56C435.941 55.4049 436.777 52.6695 436.551 49.9163C436.325 47.163 435.053 44.6012 432.997 42.7575C430.941 40.9138 428.258 39.9285 425.498 40.004C422.739 40.0796 420.113 41.2104 418.161 43.1638C416.209 45.1172 415.08 47.7448 415.004 50.5063C414.929 53.2678 415.913 55.9534 417.755 58.0107C419.598 60.068 422.158 61.3407 424.909 61.5672C427.66 61.7937 430.393 60.9567 432.547 59.2283L436.96 63.645C437.072 63.7575 437.204 63.8468 437.35 63.9077C437.496 63.9686 437.653 64 437.812 64C437.97 64 438.127 63.9686 438.273 63.9077C438.419 63.8468 438.552 63.7575 438.663 63.645C438.879 63.4212 439 63.1221 439 62.8108C439 62.4996 438.879 62.2005 438.663 61.9767ZM425.819 59.2283C424.158 59.2283 422.535 58.7355 421.155 57.8124C419.774 56.8892 418.698 55.5771 418.063 54.0419C417.427 52.5068 417.261 50.8175 417.585 49.1878C417.909 47.5581 418.708 46.0611 419.882 44.8862C421.057 43.7112 422.552 42.9111 424.181 42.5869C425.809 42.2627 427.497 42.4291 429.031 43.065C430.565 43.7009 431.876 44.7777 432.799 46.1593C433.721 47.5409 434.214 49.1652 434.214 50.8269C434.214 53.0551 433.329 55.192 431.755 56.7675C430.18 58.3431 428.045 59.2283 425.819 59.2283Z" fill="black"/>
</svg>
