<svg width="1440" height="327" viewBox="0 0 1440 327" fill="none" xmlns="http://www.w3.org/2000/svg">
<rect width="1440" height="327" fill="#F2F2F2"/>
<rect width="1440" height="327" fill="white"/>
<path d="M752 280C763.046 280 772 271.046 772 260C772 248.954 763.046 240 752 240C740.954 240 732 248.954 732 260C732 271.046 740.954 280 752 280Z" fill="#5A31FC"/>
<path d="M757.569 260.568L748.517 269.619C747.941 270.195 747.008 270.195 746.432 269.619C745.856 269.043 745.856 268.11 746.432 267.534L754.441 259.525L746.432 251.516C745.863 250.939 745.867 250.011 746.44 249.439C747.013 248.866 747.94 248.863 748.517 249.432L757.569 258.484C758.144 259.06 758.144 259.992 757.569 260.568V260.568Z" fill="white"/>
<path d="M939.5 272C949.717 272 958 263.717 958 253.5C958 243.283 949.717 235 939.5 235C929.283 235 921 243.283 921 253.5C921 263.717 929.283 272 939.5 272Z" fill="white"/>
<path d="M886.5 272C896.717 272 905 263.717 905 253.5C905 243.283 896.717 235 886.5 235C876.283 235 868 243.283 868 253.5C868 263.717 876.283 272 886.5 272Z" fill="white"/>
<path d="M833.5 272C843.717 272 852 263.717 852 253.5C852 243.283 843.717 235 833.5 235C823.283 235 815 243.283 815 253.5C815 263.717 823.283 272 833.5 272Z" fill="white"/>
<path d="M942.727 245.631H940.782C939.795 245.574 938.831 245.948 938.141 246.656C937.45 247.364 937.1 248.337 937.182 249.323V251.023H935.229C935.06 251.023 934.923 251.16 934.923 251.329V253.797C934.923 253.966 935.06 254.103 935.229 254.103H937.185V260.326C937.185 260.495 937.322 260.632 937.491 260.632H940.046C940.215 260.632 940.352 260.495 940.352 260.326V254.102H942.639C942.808 254.102 942.945 253.965 942.945 253.796V251.331C942.945 251.162 942.808 251.025 942.639 251.025H940.346V249.582C940.346 248.889 940.511 248.536 941.415 248.536H942.725C942.894 248.536 943.031 248.399 943.031 248.23V245.94C943.032 245.858 943 245.78 942.943 245.722C942.886 245.664 942.808 245.631 942.727 245.631V245.631Z" fill="#3C0AFE"/>
<path fill-rule="evenodd" clip-rule="evenodd" d="M830.139 246H836.86C839.145 246.002 840.997 247.854 841 250.139V256.861C840.997 259.146 839.145 260.998 836.86 261H830.139C827.854 260.997 826.002 259.145 826 256.86V250.139C826.003 247.854 827.854 246.003 830.139 246ZM836.86 259.67C838.411 259.668 839.667 258.412 839.669 256.861V250.14C839.667 248.589 838.411 247.333 836.86 247.331H830.139C828.589 247.333 827.333 248.589 827.331 250.139V256.861C827.333 258.411 828.589 259.668 830.139 259.67H836.86Z" fill="#3C0AFE"/>
<path fill-rule="evenodd" clip-rule="evenodd" d="M829.637 253.501C829.636 251.367 831.366 249.636 833.5 249.635C835.634 249.636 837.365 251.366 837.367 253.5C837.367 255.634 835.637 257.365 833.503 257.365C831.368 257.365 829.638 255.636 829.637 253.501ZM830.966 253.501C830.966 254.9 832.1 256.035 833.5 256.035V256.034C834.898 256.032 836.032 254.899 836.034 253.501C836.034 252.102 834.899 250.967 833.5 250.967C832.1 250.967 830.966 252.102 830.966 253.501Z" fill="#3C0AFE"/>
<path d="M837.53 248.507C837.065 248.507 836.665 248.836 836.574 249.292C836.483 249.748 836.727 250.205 837.157 250.383C837.586 250.561 838.082 250.411 838.341 250.024C838.599 249.637 838.549 249.122 838.22 248.793C838.037 248.61 837.789 248.507 837.53 248.507Z" fill="#3C0AFE"/>
<path d="M895 248.538C894.398 248.8 893.762 248.975 893.11 249.056C893.797 248.649 894.31 248.003 894.553 247.243C893.91 247.624 893.207 247.893 892.473 248.037C891.553 247.055 890.126 246.735 888.874 247.23C887.622 247.725 886.8 248.934 886.8 250.28C886.797 250.531 886.823 250.782 886.876 251.028C884.237 250.899 881.777 249.652 880.114 247.599C879.238 249.097 879.679 251.018 881.122 251.983C880.603 251.97 880.095 251.833 879.64 251.583V251.619C879.644 253.18 880.74 254.524 882.268 254.842C881.987 254.916 881.698 254.952 881.408 254.95C881.2 254.954 880.991 254.935 880.787 254.894C881.221 256.228 882.449 257.144 883.852 257.179C882.691 258.087 881.259 258.58 879.785 258.579C879.522 258.578 879.26 258.561 879 258.527C880.5 259.493 882.248 260.005 884.032 259.999C886.513 260.016 888.897 259.038 890.652 257.284C892.406 255.53 893.385 253.146 893.368 250.665C893.368 250.52 893.368 250.38 893.356 250.241C894.003 249.778 894.56 249.201 895 248.538Z" fill="#3C0AFE"/>
<rect x="697" y="48" width="45" height="45" rx="10" fill="black"/>
<rect x="285" y="48" width="45" height="45" rx="10" fill="#5A31FC"/>
<rect x="903" y="48" width="45" height="45" rx="10" fill="black"/>
<rect x="1109" y="48" width="45" height="45" rx="10" fill="black"/>
<path fill-rule="evenodd" clip-rule="evenodd" d="M721.362 71.887H724.762C725.693 71.8875 726.447 72.642 726.448 73.573V76.178C726.447 77.1089 725.693 77.8634 724.762 77.864H721.362C720.431 77.8634 719.677 77.1089 719.676 76.178V73.573C719.677 72.642 720.431 71.8875 721.362 71.887ZM724.762 76.638C725.016 76.6374 725.221 76.4318 725.222 76.178V73.573C725.221 73.3191 725.016 73.1135 724.762 73.113H721.362C721.108 73.1135 720.903 73.3191 720.902 73.573V76.178C720.903 76.4318 721.108 76.6374 721.362 76.638H724.762Z" fill="white"/>
<path fill-rule="evenodd" clip-rule="evenodd" d="M731.918 66.85C731.973 66.9404 732.001 67.0443 732 67.15C731.998 68.5778 731.152 69.8693 729.844 70.442C729.848 70.4637 729.85 70.4859 729.849 70.508V81.215C729.848 81.5531 729.574 81.8269 729.236 81.828H709.758C709.42 81.8269 709.146 81.5531 709.145 81.215V70.43C707.843 69.8586 707.001 68.5719 707 67.15C707.001 67.0447 707.03 66.9414 707.082 66.85L710.796 60.312C710.903 60.1191 711.106 59.9996 711.327 60H727.669C727.889 60.0017 728.091 60.1206 728.2 60.312L731.918 66.85ZM727.311 61.231H711.684L708.783 66.344H730.218L727.311 61.231ZM724.792 67.565C724.591 68.6878 723.614 69.5051 722.473 69.5051C721.332 69.5051 720.355 68.6878 720.154 67.565H724.792ZM716.53 69.5051C717.671 69.5051 718.648 68.6881 718.851 67.565H714.208C714.411 68.6881 715.388 69.5051 716.53 69.5051ZM712.91 67.565C712.707 68.6881 711.73 69.5051 710.589 69.5051C709.447 69.5051 708.47 68.6881 708.267 67.565H712.91ZM713.774 80.602H717.3H717.304V73.987C717.304 73.7551 717.212 73.5327 717.048 73.3687C716.884 73.2047 716.662 73.1127 716.43 73.113H714.648C714.416 73.1127 714.194 73.2047 714.03 73.3687C713.866 73.5327 713.774 73.7551 713.774 73.987V80.602ZM728.625 80.602H718.525V73.987C718.525 72.8272 717.585 71.887 716.425 71.887H714.642C713.482 71.887 712.542 72.8272 712.542 73.987V80.607H710.371V70.733C710.443 70.738 710.514 70.738 710.586 70.738C711.78 70.7373 712.895 70.1418 713.559 69.15C714.225 70.1397 715.339 70.7332 716.532 70.7332C717.725 70.7332 718.839 70.1397 719.505 69.15C720.168 70.1398 721.281 70.7337 722.473 70.7337C723.665 70.7337 724.778 70.1398 725.441 69.15C726.106 70.1403 727.221 70.7342 728.414 70.734C728.45 70.734 728.485 70.7327 728.519 70.7315H728.519C728.553 70.7302 728.588 70.729 728.623 70.729V80.598L728.625 80.602ZM726.097 67.571C726.298 68.6938 727.274 69.5114 728.414 69.512C728.414 69.512 728.414 69.512 728.414 69.512H728.415C728.414 69.512 728.414 69.512 728.414 69.512C729.556 69.51 730.534 68.6939 730.74 67.571H726.097Z" fill="white"/>
<rect x="491" y="48" width="45" height="45" rx="10" fill="black"/>
<path fill-rule="evenodd" clip-rule="evenodd" d="M305.815 77.9664L306.144 75.0114C305.606 74.623 305.289 73.9996 305.29 73.3364C305.29 72.1857 306.223 71.2529 307.374 71.2529C308.524 71.2529 309.457 72.1857 309.457 73.3364C309.459 73.9993 309.142 74.6226 308.605 75.0114L308.934 77.9664C308.95 78.1137 308.903 78.2608 308.804 78.3711C308.705 78.4815 308.564 78.5445 308.416 78.5444H306.333C306.185 78.5445 306.044 78.4815 305.945 78.3711C305.846 78.2608 305.799 78.1137 305.815 77.9664ZM308.39 73.1018C308.283 72.6283 307.861 72.2928 307.375 72.2944H307.373C306.887 72.2928 306.465 72.6283 306.358 73.1018C306.25 73.5754 306.485 74.0605 306.923 74.2694C307.122 74.3655 307.238 74.5762 307.214 74.7954L306.914 77.5014H307.834L307.534 74.7954C307.51 74.5762 307.626 74.3655 307.825 74.2694C308.263 74.0605 308.498 73.5754 308.39 73.1018Z" fill="white"/>
<path fill-rule="evenodd" clip-rule="evenodd" d="M314.667 67.0854H316.229C316.368 67.0854 316.501 67.1408 316.599 67.2394C316.697 67.338 316.751 67.4715 316.75 67.6104V80.6274C316.749 81.7773 315.817 82.7093 314.667 82.7104H300.083C298.933 82.7093 298.001 81.7773 298 80.6274V67.6104C297.999 67.4715 298.053 67.338 298.151 67.2394C298.249 67.1408 298.382 67.0854 298.521 67.0854H300.084V65.0024C300.053 62.377 301.436 59.9379 303.705 58.6162C305.974 57.2946 308.778 57.2946 311.046 58.6162C313.315 59.9379 314.698 62.377 314.667 65.0024V67.0854ZM307.379 58.7524C303.927 58.7524 301.129 61.5506 301.129 65.0024L301.125 67.0854H302.166V65.0024C302.166 62.1258 304.498 59.7939 307.375 59.7939C310.251 59.7939 312.583 62.1258 312.583 65.0024V67.0854H313.629V65.0024C313.629 61.5506 310.831 58.7524 307.379 58.7524ZM311.546 65.0024V67.0854H303.208V65.0024C303.185 63.4985 303.974 62.0987 305.272 61.3399C306.571 60.5811 308.178 60.5811 309.477 61.3399C310.775 62.0987 311.564 63.4985 311.541 65.0024H311.546ZM314.671 81.6694C315.246 81.6688 315.712 81.2026 315.713 80.6274L315.708 68.1274H299.041V80.6274C299.042 81.2026 299.508 81.6688 300.083 81.6694H314.671Z" fill="white"/>
<path fill-rule="evenodd" clip-rule="evenodd" d="M502.677 68.4147C502.677 63.5839 506.594 59.6677 511.424 59.6677C516.255 59.6677 520.171 63.5839 520.171 68.4147C520.171 73.2456 516.255 77.1617 511.424 77.1617C506.594 77.1617 502.677 73.2456 502.677 68.4147ZM517.886 63.8617C516.408 61.7566 513.997 60.5028 511.424 60.5007C507.698 60.5061 504.479 63.1068 503.69 66.7487H505.235C505.445 65.938 506.225 65.4097 507.056 65.5156C507.886 65.6214 508.509 66.3283 508.508 67.1657C508.507 67.4622 508.425 67.7528 508.272 68.0067L510.166 69.9007C510.683 69.5857 511.332 69.5857 511.848 69.9007L514.575 67.1737C514.422 66.9198 514.341 66.6292 514.339 66.3327C514.339 65.4126 515.085 64.6667 516.005 64.6667C516.302 64.6686 516.592 64.7505 516.845 64.9037L517.886 63.8617ZM516.839 66.3317C516.839 66.7918 516.466 67.1647 516.006 67.1647C515.546 67.1647 515.173 66.7918 515.173 66.3317C515.173 65.8717 515.546 65.4987 516.006 65.4987C516.466 65.4993 516.838 65.8721 516.838 66.3317H516.839ZM511.006 72.1647C511.466 72.1647 511.839 71.7918 511.839 71.3317L511.84 71.3297C511.839 70.8701 511.466 70.4982 511.006 70.4987C510.546 70.4987 510.173 70.8717 510.173 71.3317C510.173 71.7918 510.546 72.1647 511.006 72.1647ZM507.675 67.1617C507.675 67.6218 507.302 67.9947 506.842 67.9947C506.382 67.9947 506.009 67.6218 506.009 67.1617C506.009 66.7017 506.382 66.3287 506.842 66.3287C507.302 66.3287 507.675 66.7017 507.675 67.1617ZM507.058 75.0153C509.522 76.645 512.688 76.7667 515.269 75.3307V75.3337C519.087 73.2137 520.463 68.4004 518.343 64.5827L517.435 65.4907C517.588 65.7446 517.67 66.0352 517.671 66.3317C517.671 67.2518 516.925 67.9977 516.005 67.9977C515.709 67.9963 515.418 67.9148 515.164 67.7617L512.437 70.4897C512.59 70.7436 512.672 71.0342 512.673 71.3307C512.673 72.2508 511.927 72.9967 511.007 72.9967C510.087 72.9967 509.341 72.2508 509.341 71.3307C509.343 71.0342 509.424 70.7436 509.577 70.4897L507.683 68.5957C507.429 68.7488 507.139 68.8303 506.842 68.8317C506.085 68.8289 505.425 68.3153 505.235 67.5817H503.555C503.244 70.5191 504.594 73.3856 507.058 75.0153Z" fill="white"/>
<path fill-rule="evenodd" clip-rule="evenodd" d="M521.836 62.1667C522.593 62.1642 523.253 61.6521 523.443 60.9197H526.001V60.0837H523.443C523.234 59.273 522.454 58.7447 521.623 58.8505C520.792 58.9563 520.17 59.6633 520.17 60.5007C520.172 60.7972 520.253 61.0878 520.406 61.3417L519.674 62.0737C516.239 57.5972 509.862 56.6719 505.296 59.9872C500.73 63.3025 499.635 69.6518 502.828 74.3048C506.02 78.9578 512.338 80.2212 517.074 77.1537L518.331 78.4107L518.92 78.9997L522.273 82.3527C522.821 82.9232 523.634 83.153 524.4 82.9535C525.165 82.754 525.763 82.1564 525.962 81.3911C526.162 80.6258 525.932 79.8124 525.361 79.2647L522.008 75.9117L521.419 75.3227L520.162 74.0657C522.393 70.6292 522.393 66.2022 520.162 62.7657L520.995 61.9327C521.249 62.085 521.54 62.1659 521.836 62.1667ZM521.836 59.6667C522.296 59.6678 522.668 60.041 522.667 60.5007C522.667 60.9603 522.294 61.3327 521.834 61.3327C521.375 61.3327 521.002 60.9603 521.001 60.5007C521.001 60.2794 521.089 60.0672 521.246 59.9109C521.403 59.7547 521.615 59.6671 521.836 59.6677V59.6667ZM524.773 81.7418C525.286 81.2166 525.286 80.3775 524.772 79.8527L521.419 76.4997L519.509 78.4097L522.862 81.7627L522.884 81.7847C523.421 82.2861 524.26 82.2671 524.773 81.7418ZM520.831 75.9117L518.921 77.8197L517.768 76.6667C517.801 76.6414 517.833 76.6145 517.865 76.5877C517.89 76.5668 517.915 76.5458 517.94 76.5257C517.998 76.4797 518.065 76.4257 518.127 76.3717C518.218 76.2947 518.308 76.2177 518.396 76.1377L518.529 76.0127C518.7 75.8527 518.867 75.686 519.029 75.5127L519.154 75.3797C519.234 75.2917 519.311 75.2017 519.388 75.1107C519.44 75.0493 519.492 74.987 519.542 74.9237C519.559 74.9033 519.576 74.8831 519.594 74.863C519.625 74.8268 519.657 74.7906 519.682 74.7527L520.831 75.9117ZM518.807 74.5127C518.949 74.3397 519.085 74.1597 519.216 73.9767C522.118 69.9143 521.42 64.3053 517.611 61.0782C513.802 57.8511 508.154 58.0843 504.624 61.6145C501.094 65.1447 500.861 70.7922 504.088 74.6014C507.315 78.4107 512.924 79.1087 516.986 76.2067C517.17 76.0757 517.349 75.9407 517.522 75.7977C517.543 75.7803 517.563 75.7623 517.584 75.7443C517.613 75.7189 517.642 75.6933 517.671 75.6687C517.821 75.5387 517.965 75.407 518.103 75.2737C518.164 75.215 518.224 75.155 518.283 75.0937C518.419 74.9537 518.551 74.8097 518.678 74.6617L518.686 74.6533C518.726 74.607 518.768 74.5598 518.807 74.5127Z" fill="white"/>
<path fill-rule="evenodd" clip-rule="evenodd" d="M1121.6 62H1141.4C1142.84 62.0044 1144 63.1683 1144 64.604V76.067C1144 77.5011 1142.83 78.6626 1141.4 78.667H1121.6C1120.17 78.6626 1119 77.5011 1119 76.067V64.6C1119 63.1659 1120.17 62.0044 1121.6 62ZM1141.4 77.629C1142.26 77.6279 1142.96 76.9292 1142.96 76.067H1142.96V64.604C1142.96 63.7418 1142.26 63.0431 1141.4 63.042H1121.6C1120.74 63.0453 1120.04 63.7433 1120.04 64.604V76.067C1120.04 76.9277 1120.74 77.6257 1121.6 77.629H1141.4Z" fill="#F8F8FA"/>
<path fill-rule="evenodd" clip-rule="evenodd" d="M1119.52 65.125H1143.48C1143.77 65.125 1144 65.3583 1144 65.646V68.771C1144 69.0587 1143.77 69.292 1143.48 69.292H1119.52C1119.23 69.292 1119 69.0587 1119 68.771V65.646C1119 65.3583 1119.23 65.125 1119.52 65.125ZM1120.04 68.25H1142.96V66.167H1120.04V68.25Z" fill="#F8F8FA"/>
<path d="M1128.9 72.417H1122.65C1122.36 72.417 1122.12 72.6503 1122.12 72.938C1122.12 73.2257 1122.36 73.459 1122.65 73.459H1128.9C1129.18 73.459 1129.42 73.2257 1129.42 72.938C1129.42 72.6503 1129.18 72.417 1128.9 72.417Z" fill="#F8F8FA"/>
<path d="M1128.9 74.5H1122.65C1122.46 74.5 1122.29 74.5993 1122.19 74.7605C1122.1 74.9217 1122.1 75.1203 1122.19 75.2815C1122.29 75.4427 1122.46 75.542 1122.65 75.542H1128.9C1129.08 75.542 1129.25 75.4427 1129.35 75.2815C1129.44 75.1203 1129.44 74.9217 1129.35 74.7605C1129.25 74.5993 1129.08 74.5 1128.9 74.5Z" fill="#F8F8FA"/>
<path fill-rule="evenodd" clip-rule="evenodd" d="M1138.27 71.375H1139.31C1139.73 71.375 1140.13 71.5402 1140.42 71.8341C1140.71 72.1281 1140.88 72.5267 1140.88 72.942V73.98C1140.87 74.8426 1140.18 75.5414 1139.31 75.542H1138.27C1137.41 75.5414 1136.71 74.8426 1136.71 73.98V72.938C1136.71 72.0754 1137.41 71.3761 1138.27 71.375ZM1139.31 74.496C1139.6 74.496 1139.83 74.2627 1139.83 73.975V72.942C1139.83 72.8038 1139.78 72.6713 1139.68 72.5736C1139.58 72.4759 1139.45 72.421 1139.31 72.421H1138.27C1137.98 72.421 1137.75 72.6543 1137.75 72.942V73.975C1137.75 74.2627 1137.98 74.496 1138.27 74.496H1139.31Z" fill="#F8F8FA"/>
<path fill-rule="evenodd" clip-rule="evenodd" d="M933.5 79.667H933.158L933.494 77.652C933.498 77.6292 933.5 77.6061 933.5 77.583V68.833C933.498 67.6833 932.567 66.7517 931.417 66.75H931V60.083C930.998 58.9333 930.067 58.0017 928.917 58H920.583C919.433 58.0017 918.502 58.9333 918.5 60.083V64.483C917.789 64.0679 916.882 64.2367 916.368 64.8796C915.854 65.5225 915.889 66.445 916.45 67.047C916.166 67.2821 916.001 67.6313 916 68V68.833C916.001 69.1414 916.117 69.4383 916.325 69.666C916.117 69.894 916.001 70.1913 916 70.5V71.333C916.001 71.6414 916.117 71.9383 916.325 72.166C916.117 72.394 916.001 72.6913 916 73V73.833C916 74.5234 916.56 75.083 917.25 75.083H918.5V75.916C918.501 77.0661 919.433 77.9983 920.583 78H921.116L921.671 79.667H921C920.54 79.667 920.167 80.0399 920.167 80.5V82.167C920.167 82.6271 920.54 83 921 83H933.5C933.96 83 934.333 82.6271 934.333 82.167V80.5C934.333 80.0399 933.96 79.667 933.5 79.667ZM922.25 58.833H927.25V59.25C927.25 59.4803 927.063 59.667 926.833 59.667H922.667C922.437 59.667 922.25 59.4803 922.25 59.25V58.833ZM917.25 69.25H920.167C920.627 69.25 921.001 68.8768 921.001 68.4165C921.001 67.9562 920.627 67.583 920.167 67.583H917.25C917.02 67.583 916.833 67.7697 916.833 68V68.833C916.833 69.0633 917.02 69.25 917.25 69.25ZM921 70.917C921 71.1379 920.912 71.3498 920.756 71.506C920.6 71.6622 920.388 71.75 920.167 71.75H917.25C917.139 71.75 917.033 71.7061 916.955 71.6279C916.877 71.5497 916.833 71.4436 916.833 71.333V70.5C916.833 70.2697 917.02 70.083 917.25 70.083H920.167C920.388 70.083 920.6 70.1709 920.756 70.3273C920.913 70.4838 921 70.6959 921 70.917ZM918.5 65.916C918.5 65.4559 918.127 65.083 917.667 65.083C917.207 65.083 916.834 65.4559 916.834 65.916C916.834 66.3761 917.207 66.749 917.667 66.749C918.127 66.749 918.5 66.3761 918.5 65.916ZM916.834 73.833V73C916.834 72.7697 917.021 72.583 917.251 72.583H920.167C920.627 72.583 921.001 72.9562 921.001 73.4165C921.001 73.8768 920.627 74.25 920.167 74.25H917.25C917.02 74.25 916.833 74.0633 916.833 73.833H916.834ZM919.334 75.083V75.916L919.333 75.917C919.333 76.6074 919.893 77.167 920.583 77.167H928.917C929.607 77.167 930.167 76.6074 930.167 75.917V70.917H929.75C928.599 70.917 927.667 69.9842 927.667 68.8335C927.667 67.6828 928.599 66.75 929.75 66.75H930.167V60.083C930.167 59.7515 930.035 59.4335 929.801 59.1991C929.566 58.9647 929.249 58.833 928.917 58.833H928.084V59.25C928.084 59.9404 927.524 60.5 926.834 60.5H922.667C922.335 60.5003 922.017 60.3687 921.782 60.1342C921.548 59.8998 921.416 59.5817 921.416 59.25V58.833H920.583C919.893 58.833 919.333 59.3926 919.333 60.083V66.75H920.167C920.861 66.7476 921.484 67.1779 921.727 67.8283C921.971 68.4787 921.783 69.2119 921.258 69.666C921.623 69.9785 921.834 70.4352 921.834 70.916C921.834 71.3968 921.623 71.8535 921.258 72.166C921.784 72.6199 921.972 73.3536 921.729 74.0045C921.485 74.6555 920.862 75.0858 920.167 75.083H919.334ZM922 78H928.922C930.07 77.9956 930.998 77.0648 931 75.917V70.5C931 70.2697 930.813 70.083 930.583 70.083H929.75C929.06 70.083 928.5 69.5234 928.5 68.833C928.5 68.1426 929.06 67.583 929.75 67.583H931.417C931.749 67.583 932.066 67.7147 932.301 67.9491C932.535 68.1835 932.667 68.5015 932.667 68.833V77.548L932.314 79.666H922.55L922 78ZM921 80.5V82.167H933.5V80.5H921Z" fill="white"/>
<path d="M922.372 66.872L926.539 62.705L927.128 63.294L922.961 67.465L922.372 66.872Z" fill="white"/>
<path fill-rule="evenodd" clip-rule="evenodd" d="M926.417 68C925.727 68 925.167 67.4404 925.167 66.75C925.167 66.0596 925.727 65.5 926.417 65.5C927.107 65.5 927.667 66.0596 927.667 66.75C927.667 67.4404 927.107 68 926.417 68ZM926.417 67.167C926.647 67.167 926.834 66.9803 926.834 66.75C926.834 66.5197 926.647 66.333 926.417 66.333C926.187 66.333 926 66.5197 926 66.75C926 66.9803 926.187 67.167 926.417 67.167Z" fill="white"/>
<path fill-rule="evenodd" clip-rule="evenodd" d="M924.333 63.417C924.333 64.1073 923.773 64.667 923.083 64.667C922.393 64.667 921.833 64.1073 921.833 63.417C921.833 62.7266 922.393 62.167 923.083 62.167C923.773 62.167 924.333 62.7266 924.333 63.417ZM923.5 63.417C923.5 63.1867 923.313 63 923.083 63C922.853 63 922.666 63.1867 922.666 63.417C922.666 63.6473 922.853 63.834 923.083 63.834C923.313 63.834 923.5 63.6473 923.5 63.417Z" fill="white"/>
<path d="M924.333 72.167H925.166V73H924.333V72.167Z" fill="white"/>
<path d="M926 72.167H926.833V73H926V72.167Z" fill="white"/>
<path d="M922.667 72.167H923.5V73H922.667V72.167Z" fill="white"/>
</svg>
