<svg width="990" height="683" viewBox="0 0 990 683" fill="none" xmlns="http://www.w3.org/2000/svg">
<path d="M84.8577 442.755C129.852 628.229 413.491 714.202 626.606 671.915C678.707 661.567 905.88 616.905 970.881 417.434C1001.89 322.301 999.963 179.834 915.922 85.8876C862.045 25.6603 780.9 -7.37981 704.313 1.3998C585.86 14.9721 580.607 116.849 446.319 159.517C311.877 202.228 250.738 123.339 168.435 180.427C97.178 229.839 62.8819 352.033 84.8577 442.755Z" fill="#F0F6FF"/>
<path d="M664.777 227.285V527.229C664.777 537.257 657.372 545.386 648.238 545.386H242.484C236.809 545.386 231.827 542.271 228.851 537.485C227.017 534.56 225.979 531.027 225.979 527.266V227.285C225.979 217.256 233.384 209.127 242.518 209.127H648.273C652.736 209.127 656.819 211.064 659.794 214.255C662.839 217.598 664.777 222.194 664.777 227.285Z" fill="#7475DA"/>
<path d="M633.395 496.307H257.362C248.228 496.307 240.823 488.178 240.823 478.149V243.657C240.823 233.628 248.228 225.499 257.362 225.499H633.429C642.564 225.499 649.968 233.628 649.968 243.657V478.149C649.934 488.178 642.529 496.307 633.395 496.307Z" fill="#D5DDFF"/>
<path d="M460.403 524.368C461.75 515.256 456.114 506.67 447.815 505.192C439.515 503.713 431.695 509.901 430.348 519.013C429.001 528.125 434.637 536.71 442.937 538.189C451.236 539.668 459.056 533.48 460.403 524.368Z" fill="#F5F8FF"/>
<path d="M452.529 529.55C456.488 525.204 456.488 518.157 452.529 513.81C448.57 509.463 442.151 509.463 438.192 513.81C434.233 518.157 434.233 525.204 438.192 529.55C442.151 533.897 448.57 533.897 452.529 529.55Z" fill="#748FFE"/>
<path opacity="0.3" d="M664.819 227.397V527.341C664.819 537.37 657.414 545.499 648.28 545.499H242.526C236.852 545.499 231.869 542.384 228.894 537.598C495.452 494.331 638.592 252.811 659.802 214.444C662.881 217.711 664.819 222.307 664.819 227.397Z" fill="#F5F8FF"/>
<path d="M493.922 591.844H399.741C397.457 591.844 396.454 588.691 398.253 587.134C402.163 583.715 407.18 579.043 409.809 575.32C412.681 571.293 413.754 561.189 414.169 553.819C414.446 548.995 414.411 545.31 414.411 545.31H479.286C479.286 545.31 479.182 562.556 482.193 571.635C482.677 573.117 483.265 574.37 483.923 575.282C486.552 578.967 491.535 583.677 495.479 587.096C497.174 588.691 496.171 591.844 493.922 591.844Z" fill="#7475DA"/>
<path opacity="0.3" d="M482.123 571.673L414.1 553.857C414.376 549.033 414.342 545.348 414.342 545.348H479.217C479.252 545.348 479.148 562.594 482.123 571.673Z" fill="#F5F8FF"/>
<path d="M344.07 192.413H279.852C274.212 192.413 269.61 187.398 269.61 181.168V134.635C269.61 128.443 274.178 123.391 279.852 123.391H344.07C349.709 123.391 354.311 128.405 354.311 134.635V181.13C354.311 187.36 349.709 192.413 344.07 192.413Z" fill="#B7C5FF"/>
<path d="M302.169 168.671V147.132L321.753 157.769L302.169 168.671Z" fill="#5574D8"/>
<path d="M519.664 270.856V435.794C519.664 445.519 512.468 453.42 503.61 453.42H278.295C269.437 453.42 262.24 445.519 262.24 435.794V270.856C262.24 261.131 269.437 253.23 278.295 253.23H503.575C512.468 253.23 519.664 261.093 519.664 270.856Z" fill="#BDCAFF"/>
<path d="M519.666 270.856V280.694H262.276V270.856C262.276 261.131 269.473 253.23 278.331 253.23H503.611C512.469 253.23 519.666 261.093 519.666 270.856Z" fill="#7475DA"/>
<path d="M292.171 268.122C292.747 265.447 291.238 262.767 288.802 262.135C286.366 261.504 283.924 263.16 283.349 265.835C282.774 268.509 284.283 271.189 286.719 271.821C289.155 272.453 291.596 270.796 292.171 268.122Z" fill="white"/>
<path opacity="0.5" d="M308.508 270.457C310.278 268.514 310.278 265.363 308.508 263.419C306.738 261.476 303.868 261.476 302.098 263.42C300.327 265.363 300.327 268.514 302.098 270.457C303.868 272.4 306.737 272.4 308.508 270.457Z" fill="white"/>
<path opacity="0.5" d="M324.602 271.536C326.915 270.485 328.013 267.573 327.055 265.034C326.097 262.495 323.446 261.289 321.133 262.341C318.82 263.393 317.722 266.304 318.68 268.843C319.638 271.382 322.289 272.588 324.602 271.536Z" fill="white"/>
<path opacity="0.5" d="M296.944 407.76H287.291C285.319 407.76 283.692 406.013 283.692 403.809V374.788C283.692 372.622 285.284 370.837 287.291 370.837H296.944C298.916 370.837 300.543 372.584 300.543 374.788V403.809C300.543 406.013 298.916 407.76 296.944 407.76Z" fill="white"/>
<path d="M325.178 407.76H315.524C313.552 407.76 311.926 406.012 311.926 403.809V337.864C311.926 335.699 313.517 333.913 315.524 333.913H325.178C327.15 333.913 328.776 335.661 328.776 337.864V403.809C328.776 406.012 327.15 407.76 325.178 407.76Z" fill="#FD8589"/>
<path opacity="0.5" d="M353.411 407.76H343.758C341.785 407.76 340.159 406.013 340.159 403.81V353.667C340.159 351.502 341.751 349.716 343.758 349.716H353.411C355.383 349.716 357.009 351.464 357.009 353.667V403.81C357.009 406.013 355.418 407.76 353.411 407.76Z" fill="white"/>
<path d="M381.645 407.76H371.992C370.02 407.76 368.394 406.013 368.394 403.809V321.644C368.394 319.479 369.985 317.693 371.992 317.693H381.645C383.618 317.693 385.244 319.441 385.244 321.644V403.809C385.244 406.013 383.652 407.76 381.645 407.76Z" fill="#FD8589"/>
<path d="M474.719 335.015H413.65C412.024 335.015 410.709 333.572 410.709 331.786C410.709 330.001 412.024 328.557 413.65 328.557H474.719C476.345 328.557 477.66 330.001 477.66 331.786C477.694 333.572 476.345 335.015 474.719 335.015Z" fill="#FD858A"/>
<path d="M443.302 353.401H413.65C412.024 353.401 410.709 351.957 410.709 350.172C410.709 348.386 412.024 346.943 413.65 346.943H443.302C444.928 346.943 446.243 348.386 446.243 350.172C446.243 351.957 444.928 353.401 443.302 353.401Z" fill="#748FFE"/>
<path d="M461.882 371.787H413.65C412.024 371.787 410.709 370.343 410.709 368.558C410.709 366.772 412.024 365.329 413.65 365.329H461.882C463.509 365.329 464.823 366.772 464.823 368.558C464.823 370.343 463.509 371.787 461.882 371.787Z" fill="#FD858A"/>
<path d="M489.147 390.172H413.65C412.024 390.172 410.709 388.729 410.709 386.943C410.709 385.158 412.024 383.714 413.65 383.714H489.147C490.773 383.714 492.088 385.158 492.088 386.943C492.123 388.729 490.808 390.172 489.147 390.172Z" fill="#748FFE"/>
<path d="M747.851 213.686H689.135C684.187 213.686 680.139 218.092 680.139 223.562V288.026C680.139 293.458 684.152 297.902 689.135 297.902H747.851C752.799 297.902 756.847 293.496 756.847 288.026V223.524C756.812 218.092 752.799 213.686 747.851 213.686Z" fill="#B7C5FF"/>
<path d="M705.05 277.351H699.653C697.957 277.351 696.573 275.832 696.573 273.971V254.407C696.573 252.546 697.957 251.027 699.653 251.027H705.05C706.746 251.027 708.13 252.546 708.13 254.407V273.971C708.13 275.832 706.746 277.351 705.05 277.351Z" fill="#5574D8"/>
<path d="M727.644 252.812L737.436 252.698C738.543 252.698 739.581 253.382 740.065 254.484C740.273 254.977 740.377 255.547 740.377 256.117C740.342 257.523 739.616 258.814 738.474 259.46C739.616 260.068 740.342 261.321 740.377 262.689C740.411 264.094 738.993 265.424 737.816 266.032C739.027 266.639 739.719 268.007 739.615 269.375C739.512 270.552 738.093 271.92 736.778 272.072C737.816 272.641 738.37 273.895 738.197 275.111C737.989 276.44 736.917 277.466 735.636 277.504H717.091C716.78 277.504 716.503 277.466 716.191 277.39L711.209 275.946C710.794 275.832 710.482 275.414 710.482 274.921V253.762C710.482 253.192 710.898 252.698 711.451 252.698H716.468C717.229 252.698 717.921 252.28 718.302 251.559C719.34 249.735 720.828 246.848 722.835 244.531C725.603 241.302 726.433 234.693 728.613 234.047C730.793 233.439 733.18 241.872 730.619 246.544C728.059 251.217 727.644 252.812 727.644 252.812Z" fill="#5574D8"/>
<path d="M704.359 271.843C704.359 273.059 703.46 274.009 702.387 274.009C701.28 274.009 700.415 273.021 700.415 271.843C700.415 270.628 701.315 269.678 702.387 269.678C703.46 269.678 704.359 270.628 704.359 271.843Z" fill="white"/>
<path d="M765.843 346.069V578.51C765.843 585.272 760.861 590.742 754.737 590.742H620.973C617.582 590.742 614.538 589.071 612.496 586.45C610.835 584.322 609.832 581.549 609.832 578.548V346.107C609.832 339.346 614.814 333.914 620.939 333.914H754.668C757.263 333.914 759.65 334.901 761.518 336.535C764.183 338.7 765.843 342.157 765.843 346.069Z" fill="#B7C5FF"/>
<path d="M735.569 403.506H640.142C632.288 403.506 625.922 396.516 625.922 387.893V372.85C625.922 364.227 632.288 357.238 640.142 357.238H735.569C743.423 357.238 749.79 364.227 749.79 372.85V387.893C749.79 396.478 743.423 403.506 735.569 403.506Z" fill="#F5F8FF"/>
<path d="M640.176 446.849H632.703C627.305 446.849 622.945 442.062 622.945 436.136V430.628C622.945 424.702 627.305 419.916 632.703 419.916H640.176C645.574 419.916 649.933 424.702 649.933 430.628V436.174C649.933 442.062 645.539 446.849 640.176 446.849Z" fill="#5574D8"/>
<path d="M674.465 446.849H666.992C661.594 446.849 657.234 442.062 657.234 436.136V430.628C657.234 424.702 661.594 419.916 666.992 419.916H674.465C679.863 419.916 684.223 424.702 684.223 430.628V436.174C684.188 442.062 679.828 446.849 674.465 446.849Z" fill="#5574D8"/>
<path d="M708.754 446.849H701.245C695.848 446.849 691.488 442.062 691.488 436.136V430.628C691.488 424.702 695.848 419.916 701.245 419.916H708.719C714.117 419.916 718.476 424.702 718.476 430.628V436.174C718.476 442.062 714.117 446.849 708.754 446.849Z" fill="#5574D8"/>
<path d="M743.007 446.849H735.534C730.136 446.849 725.776 442.062 725.776 436.136V430.628C725.776 424.702 730.136 419.916 735.534 419.916H743.007C748.405 419.916 752.764 424.702 752.764 430.628V436.174C752.764 442.062 748.405 446.849 743.007 446.849Z" fill="#5574D8"/>
<path d="M640.176 479.707H632.703C627.305 479.707 622.945 474.921 622.945 468.995V463.449C622.945 457.523 627.305 452.736 632.703 452.736H640.176C645.574 452.736 649.933 457.523 649.933 463.449V468.995C649.933 474.921 645.539 479.707 640.176 479.707Z" fill="#5574D8"/>
<path d="M674.465 479.707H666.992C661.594 479.707 657.234 474.921 657.234 468.995V463.449C657.234 457.523 661.594 452.736 666.992 452.736H674.465C679.863 452.736 684.223 457.523 684.223 463.449V468.995C684.188 474.921 679.828 479.707 674.465 479.707Z" fill="#5574D8"/>
<path d="M708.754 479.707H701.245C695.848 479.707 691.488 474.921 691.488 468.995V463.449C691.488 457.523 695.848 452.736 701.245 452.736H708.719C714.117 452.736 718.476 457.523 718.476 463.449V468.995C718.476 474.921 714.117 479.707 708.754 479.707Z" fill="#5574D8"/>
<path d="M743.007 479.707H735.534C730.136 479.707 725.776 474.921 725.776 468.995V463.449C725.776 457.523 730.136 452.736 735.534 452.736H743.007C748.405 452.736 752.764 457.523 752.764 463.449V468.995C752.764 474.921 748.405 479.707 743.007 479.707Z" fill="#5574D8"/>
<path d="M640.176 512.528H632.703C627.305 512.528 622.945 507.741 622.945 501.815V496.269C622.945 490.343 627.305 485.557 632.703 485.557H640.176C645.574 485.557 649.933 490.343 649.933 496.269V501.815C649.933 507.741 645.539 512.528 640.176 512.528Z" fill="#5574D8"/>
<path d="M674.465 512.528H666.992C661.594 512.528 657.234 507.741 657.234 501.815V496.269C657.234 490.343 661.594 485.557 666.992 485.557H674.465C679.863 485.557 684.223 490.343 684.223 496.269V501.815C684.188 507.741 679.828 512.528 674.465 512.528Z" fill="#5574D8"/>
<path d="M708.754 512.528H701.245C695.848 512.528 691.488 507.741 691.488 501.815V496.269C691.488 490.343 695.848 485.557 701.245 485.557H708.719C714.117 485.557 718.476 490.343 718.476 496.269V501.815C718.476 507.741 714.117 512.528 708.754 512.528Z" fill="#5574D8"/>
<path d="M743.007 512.528H735.534C730.136 512.528 725.776 507.741 725.776 501.815V496.269C725.776 490.343 730.136 485.557 735.534 485.557H743.007C748.405 485.557 752.764 490.343 752.764 496.269V501.815C752.764 507.741 748.405 512.528 743.007 512.528Z" fill="#5574D8"/>
<path d="M640.176 545.348H632.703C627.305 545.348 622.945 540.562 622.945 534.636V529.09C622.945 523.164 627.305 518.377 632.703 518.377H640.176C645.574 518.377 649.933 523.164 649.933 529.09V534.636C649.933 540.562 645.539 545.348 640.176 545.348Z" fill="#5574D8"/>
<path d="M674.465 545.348H666.992C661.594 545.348 657.234 540.562 657.234 534.636V529.09C657.234 523.164 661.594 518.377 666.992 518.377H674.465C679.863 518.377 684.223 523.164 684.223 529.09V534.636C684.188 540.562 679.828 545.348 674.465 545.348Z" fill="#5574D8"/>
<path d="M708.754 545.348H701.245C695.848 545.348 691.488 540.562 691.488 534.636V529.09C691.488 523.164 695.848 518.377 701.245 518.377H708.719C714.117 518.377 718.476 523.164 718.476 529.09V534.636C718.476 540.562 714.117 545.348 708.754 545.348Z" fill="#5574D8"/>
<path d="M743.007 578.207H735.534C730.136 578.207 725.776 573.42 725.776 567.494V529.128C725.776 523.202 730.136 518.415 735.534 518.415H743.007C748.405 518.415 752.764 523.202 752.764 529.128V567.494C752.764 573.42 748.405 578.207 743.007 578.207Z" fill="#5574D8"/>
<path d="M640.176 578.206H632.703C627.305 578.206 622.945 573.42 622.945 567.494V561.948C622.945 556.022 627.305 551.236 632.703 551.236H640.176C645.574 551.236 649.933 556.022 649.933 561.948V567.494C649.933 573.42 645.539 578.206 640.176 578.206Z" fill="#5574D8"/>
<path d="M674.465 578.206H666.992C661.594 578.206 657.234 573.42 657.234 567.494V561.948C657.234 556.022 661.594 551.236 666.992 551.236H674.465C679.863 551.236 684.223 556.022 684.223 561.948V567.494C684.188 573.42 679.828 578.206 674.465 578.206Z" fill="#5574D8"/>
<path d="M708.754 578.206H701.245C695.848 578.206 691.488 573.42 691.488 567.494V561.948C691.488 556.022 695.848 551.236 701.245 551.236H708.719C714.117 551.236 718.476 556.022 718.476 561.948V567.494C718.476 573.42 714.117 578.206 708.754 578.206Z" fill="#5574D8"/>
<path opacity="0.3" d="M609.867 346.031V578.472C609.867 585.234 614.85 590.704 620.974 590.704H754.703C758.093 590.704 761.138 589.033 763.18 586.412C641.595 499.08 614.123 336.42 614.123 336.42L614.088 336.458C611.528 338.7 609.867 342.156 609.867 346.031Z" fill="#F5F8FF"/>
<path d="M480.082 129.81H597.169C602.601 129.81 606.995 134.635 606.995 140.599V230.019C606.995 235.983 602.601 240.808 597.169 240.808H480.082C474.65 240.808 470.256 235.983 470.256 230.019V140.599C470.256 134.635 474.65 129.81 480.082 129.81Z" fill="#B7C5FF"/>
<path d="M497.895 197.933C500.841 190.528 505.673 180.371 510.971 180.74C519.551 181.336 522.265 209.111 529.01 209.026C537.047 208.912 540.096 169.249 549.477 168.767C555.99 168.455 560.409 187.208 565.216 186.045C570.901 184.683 568.317 157.561 576.664 155.035C577.982 154.638 579.197 154.95 579.895 155.206" stroke="#5574D8" stroke-width="8" stroke-miterlimit="10" stroke-linecap="round"/>
<path opacity="0.4" d="M548.895 180.853C554.97 180.853 559.895 175.516 559.895 168.933C559.895 162.35 554.97 157.013 548.895 157.013C542.819 157.013 537.895 162.35 537.895 168.933C537.895 175.516 542.819 180.853 548.895 180.853Z" fill="#F5F8FF"/>
<path d="M548.895 175.435C552.208 175.435 554.895 172.524 554.895 168.933C554.895 165.342 552.208 162.431 548.895 162.431C545.581 162.431 542.895 165.342 542.895 168.933C542.895 172.524 545.581 175.435 548.895 175.435Z" fill="#F5F8FF"/>
<path d="M676.438 620.79C675.953 622.918 672.978 624.133 669.276 623.943C664.293 623.677 659.276 622.234 654.501 619.081C653.256 618.245 653.706 613.193 653.706 613.193L652.252 617.296C650.972 616.232 650.176 615.396 648.965 614.067C648.066 610.876 648.827 605.671 649.242 603.316C649.381 602.557 649.484 602.101 649.484 602.101L658.861 600.923C658.861 600.923 660.383 607.039 668.93 612.091C674.985 615.662 676.922 618.701 676.438 620.79Z" fill="url(#paint0_linear_345_2)"/>
<path d="M676.438 620.79C675.953 622.917 672.978 624.133 669.276 623.943C664.293 623.677 659.276 622.233 654.501 619.08C653.256 618.245 653.706 613.192 653.706 613.192L652.252 617.295C650.972 616.231 650.176 615.396 648.965 614.066C648.066 610.875 648.827 605.671 649.242 603.316L654.536 604.607C654.536 604.607 654.847 610.343 662.529 617.181C670.244 624.057 676.438 620.79 676.438 620.79Z" fill="#4C1A13"/>
<path d="M615.092 618.017L606.926 618.815L606.2 611.635L602.636 618.815C602.636 618.815 589.003 620.942 585.889 619.955C584.021 619.385 584.194 617.447 586.132 615.206C587.412 613.725 589.419 612.091 592.117 610.572C598.934 606.773 605.75 600.923 605.75 600.923H613.708C613.742 600.923 616.718 612.965 615.092 618.017Z" fill="url(#paint1_linear_345_2)"/>
<path d="M615.092 618.017L606.926 618.815L606.2 611.635L602.636 618.815C602.636 618.815 589.003 620.942 585.889 619.955C584.021 619.385 584.194 617.447 586.132 615.206C586.72 616.27 588.554 617.409 593.778 616.878C602.878 615.966 607.722 603.316 607.722 603.316L608.587 600.923H613.777C613.742 600.923 616.718 612.965 615.092 618.017Z" fill="#4C1A13"/>
<path d="M627.721 478.833C627.686 485.747 625.852 504.551 623.638 525.139C620.489 554.541 616.614 587.628 616.268 595.073C615.68 607.761 607.065 605.823 604.124 603.544C601.148 601.265 597.55 545.956 597.307 489.584C597.204 467.171 597.965 451.445 599.037 440.505C601.044 419.46 604.124 416.003 604.124 416.003C613.604 410.799 624.849 417.637 624.849 417.637C624.849 417.637 627.825 462.005 627.721 478.833Z" fill="#221F5B"/>
<path d="M627.72 478.833C627.686 485.747 625.852 504.55 623.638 525.139C624.503 474.313 607.722 443.923 599.764 435.224C601.77 414.18 604.123 416.003 604.123 416.003C613.604 410.799 624.849 417.637 624.849 417.637C624.849 417.637 627.824 462.005 627.72 478.833Z" fill="#221F5B"/>
<path d="M659.172 604.493C659.172 604.493 649.276 610.343 647.892 601.872C646.508 593.401 629.243 498.966 624.814 479.137C621.527 464.284 616.198 442.708 614.365 429.906C613.742 425.576 613.5 422.271 613.88 420.523C615.368 413.686 636.405 410.039 641.768 416.497C641.768 416.497 648.653 426.943 650.625 462.233C650.833 465.69 650.971 469.412 651.041 473.363C652.044 517.656 656.957 556.288 657.961 573.648C658.999 591.046 661.351 600.619 659.172 604.493Z" fill="#3C2F60"/>
<path d="M649.691 450.191C642.979 424.095 619.659 430.818 614.365 429.944C613.742 425.614 613.5 422.309 613.88 420.562C615.368 413.724 636.405 410.077 641.768 416.535C641.768 416.535 644.052 418.321 649.691 450.191Z" fill="#221F5B"/>
<path d="M605.196 321.302C605.196 321.34 605.161 321.378 605.161 321.416C603.535 325.746 597.895 327.76 597.895 327.76C597.895 327.76 592.844 326.962 594.193 322.935C594.574 321.758 595.127 320.238 595.854 318.643C597.618 314.692 600.317 310.286 603.846 309.754C608.76 309.032 606.822 316.971 605.196 321.302Z" fill="url(#paint2_linear_345_2)"/>
<path d="M605.196 321.302C605.196 321.34 605.161 321.378 605.161 321.416C603.535 325.746 597.895 327.76 597.895 327.76C597.895 327.76 592.844 326.962 594.193 322.935C594.574 321.758 595.127 320.238 595.854 318.643C597.134 320.96 600.179 324.835 605.196 321.302Z" fill="#FF8B89"/>
<path d="M602.739 378.206C602.739 378.206 576.582 384.132 567.793 382.271C567.032 382.119 566.306 381.929 565.614 381.739C558.451 379.688 555.753 375.509 560.216 364.189C565.095 351.805 588.242 323.961 592.256 323.011C596.269 322.024 599.764 327.912 599.764 327.912C599.764 327.912 591.494 344.018 587.066 350.362C582.602 356.706 581.426 362.252 591.218 353.971C595.439 350.4 599.141 347.931 602.047 346.221C605.853 343.98 608.206 343.182 608.206 343.182C609.417 351.653 602.739 378.206 602.739 378.206Z" fill="url(#paint3_linear_345_2)"/>
<path d="M602.739 378.206C602.739 378.206 576.582 384.132 567.793 382.271C567.032 382.119 566.305 381.929 565.613 381.739C587.065 386.563 599.106 355.034 602.013 346.259C605.819 344.018 608.171 343.22 608.171 343.22C609.417 351.654 602.739 378.206 602.739 378.206Z" fill="#3B03D6"/>
<path d="M652.598 377.256C650.868 382.612 648.999 387.665 647.581 391.387C643.117 403.125 646.231 412.888 644.744 417.104C643.256 421.321 631.803 424.93 618.413 423.79C617.029 423.676 615.714 423.562 614.469 423.448C614.226 423.41 613.984 423.41 613.742 423.372C603.57 422.309 598.933 420.409 599.971 409.165C601.148 396.288 597.999 375.319 601.459 360.656C604.919 345.993 606.822 343.866 608.206 343.22C609.59 342.574 616.164 337.864 636.024 338.358C636.024 338.358 652.321 344.55 656.646 349.602C659.552 353.021 656.335 365.784 652.598 377.256Z" fill="url(#paint4_linear_345_2)"/>
<path d="M647.581 391.387C643.117 403.125 646.231 412.888 644.744 417.105C643.256 421.321 631.803 424.93 618.413 423.79C617.029 423.676 615.714 423.562 614.469 423.448C632.634 425.082 635.609 402.404 633.291 381.169C630.938 359.63 645.955 351.691 645.955 351.691C645.955 351.691 650.037 367.038 652.598 377.256C650.833 382.612 648.965 387.665 647.581 391.387Z" fill="#3B03D6"/>
<path d="M624.676 353.325C624.676 353.325 627.409 364.379 610.628 380.333C593.847 396.288 576.374 405.405 581.564 424.626C581.564 424.626 563.607 426.107 556.79 440.732C556.79 440.732 551.151 399.555 571.461 387.323C591.771 375.129 610.593 374.445 615.645 366.164C620.697 357.845 620.697 352.641 620.697 352.641L624.676 353.325Z" fill="url(#paint5_linear_345_2)"/>
<path d="M622.22 347.171C619.902 346.411 618.379 342.84 617.791 341.321C617.653 340.903 617.549 340.637 617.549 340.637C617.549 340.637 620.109 334.445 620.317 330.761C620.524 327.076 627.929 323.163 631.977 327.38C631.977 327.38 631.631 329.507 631.423 331.938C631.216 334.521 631.181 337.484 631.977 338.662C633.465 340.979 625.161 348.159 622.22 347.171Z" fill="url(#paint6_linear_345_2)"/>
<path d="M632.012 327.418C632.012 327.418 631.666 329.545 631.458 331.976C623.881 332.242 618.933 341.321 618.933 341.321H617.791C617.653 340.903 617.549 340.637 617.549 340.637C617.549 340.637 620.109 334.445 620.317 330.761C620.524 327.114 627.929 323.201 632.012 327.418Z" fill="#FF8B89"/>
<path d="M628.516 348.919C628.516 348.919 626.406 353.895 624.883 354.617C623.361 355.338 620.282 355.338 619.763 354.009C619.244 352.679 618.067 347.855 618.067 347.855C618.067 347.855 620.386 344.018 623.327 344.018C626.233 344.018 628.516 348.919 628.516 348.919Z" fill="#FF8B89"/>
<path d="M614.053 308.538C614.053 308.538 607.687 326.62 610.628 331.976C613.603 337.332 626.855 329.393 626.855 329.393C626.855 329.393 627.062 330.153 630.661 329.203C634.259 328.253 635.955 327.304 635.955 327.304L639.518 322.745L634.19 307.969L614.053 308.538Z" fill="#FEC1BE"/>
<path d="M642.98 325.139C641.665 327.836 638.689 328.899 635.991 329.241C633.188 329.621 630.662 329.241 630.662 329.241C630.662 329.241 635.956 327.684 635.264 322.746C634.676 318.529 629.313 322.1 629.313 322.1C629.313 322.1 632.289 311.843 631.7 311.501C631.112 311.16 612.29 314.768 605.162 305.006C600.837 299.08 602.533 287.57 608.345 279.441C612.117 274.198 617.584 270.324 624.296 270.324C641.354 270.324 626.96 288.064 631.804 294.103C636.614 300.105 642.703 297.522 643.741 305.499C644.779 313.477 640.35 314.768 640.35 314.768C640.35 314.768 645.644 319.593 642.98 325.139Z" fill="black"/>
<path d="M623.292 344.018L630.212 352.641L635.99 338.32C635.99 338.32 633.949 334.255 631.354 335.547C628.724 336.876 627.652 341.739 623.292 344.018Z" fill="#E3D2FF"/>
<path d="M623.292 344.018L616.649 353.97C616.649 353.97 613.673 343.448 613.5 341.055C613.292 338.662 618.621 337.788 618.621 337.788C618.621 337.788 619.278 342.764 623.292 344.018Z" fill="#E3D2FF"/>
<path d="M647.131 469.071C647.131 469.071 636.266 482.746 635.471 493.61C634.675 504.285 627.962 510.552 627.755 510.742C627.755 510.742 607.41 499.688 591.978 497.713C576.547 495.776 562.326 489.888 562.326 489.888C562.326 489.888 573.606 476.44 584.47 461.663C595.335 446.886 597.307 442.556 597.307 442.556C597.93 442.86 638.688 461.967 647.131 469.071Z" fill="white"/>
<path opacity="0.5" d="M647.131 469.071C647.131 469.071 636.267 482.746 635.471 493.61C634.675 504.285 627.963 510.553 627.755 510.742C634.468 496.193 597.826 442.974 597.342 442.594C597.93 442.86 638.689 461.967 647.131 469.071Z" fill="#B7C5FF"/>
<path d="M639.623 460.903C639.623 460.903 638.966 465.234 637.547 470.248C637.27 471.236 636.89 472.072 636.405 472.755C634.502 475.566 631.215 475.794 628.655 472.755C625.506 468.995 631.977 463.145 630.939 463.145C629.901 463.145 627.202 465.044 627.79 461.967C628.032 460.752 629.278 459.802 630.696 459.118C632.841 458.092 635.402 457.599 635.402 457.599L639.623 460.903Z" fill="url(#paint7_linear_345_2)"/>
<path d="M639.623 460.903C639.623 460.903 638.966 465.234 637.547 470.248C637.27 471.236 636.89 472.072 636.405 472.755C638.896 462.499 630.696 459.118 630.696 459.118C632.841 458.092 635.402 457.599 635.402 457.599L639.623 460.903Z" fill="#FF8B89"/>
<path d="M645.955 351.691C654.847 345.917 660.591 344.892 667.718 371.179C674.846 397.427 675.815 403.961 664.95 424.018C654.086 444.113 640.038 463.221 640.038 463.221C640.038 463.221 633.222 460.599 634.848 456.725C636.475 452.812 641.976 432.147 647.166 423.031C652.356 413.914 653.844 406.924 649.38 398.605C644.917 390.248 627.859 363.391 645.955 351.691Z" fill="url(#paint8_linear_345_2)"/>
<path d="M639.52 322.745C639.278 325.291 637.409 327.76 635.991 329.203C633.188 329.583 630.662 329.203 630.662 329.203C630.662 329.203 635.956 327.646 635.264 322.708C634.676 318.491 629.313 322.062 629.313 322.062C629.313 322.062 632.289 311.805 631.7 311.463C631.112 311.122 612.29 314.73 605.162 304.968C600.837 299.042 602.533 287.532 608.345 279.403C608.207 279.972 603.155 301.511 618.414 303.676C633.88 305.841 637.063 306.715 635.368 312.451C633.673 318.187 633.673 318.187 633.673 318.187C633.673 318.187 639.901 318.643 639.52 322.745Z" fill="black"/>
<path d="M276.495 305.385C273.07 307.968 249.334 332.698 240.096 338.206C239.404 338.624 238.643 339.004 237.812 339.421C227.675 344.246 208.645 347.285 208.645 347.285L207.918 332.584C207.918 332.584 212.174 331.824 217.225 330.836C223.177 329.659 230.2 328.139 232.622 327.076C237.086 325.138 268.26 303.258 270.994 297.864C273.693 292.47 276.045 287.987 279.436 288.671C282.827 289.355 279.921 302.764 276.495 305.385Z" fill="#FEC1BE"/>
<path d="M237.812 339.421C227.674 344.246 208.645 347.285 208.645 347.285L207.918 332.584C207.918 332.584 212.174 331.824 217.225 330.836C218.817 335.129 223.938 344.094 237.812 339.421Z" fill="url(#paint9_linear_345_2)"/>
<path d="M198.992 403.011C197.366 409.051 193.94 414.749 189.338 419.574C180.066 429.336 166.053 435.49 152.697 433.591C140.137 431.843 127.128 422.802 121.419 408.519C120.104 405.252 119.239 401.872 118.754 398.415C117.44 388.994 118.997 379.345 122.491 371.862C127.82 360.504 134.878 360.01 139.065 346.335C141.833 337.294 141.867 327.949 141.867 327.949C141.936 317.123 139.168 314.92 141.417 310.361C144.462 304.208 151.382 304.436 153.943 296.382C154.496 294.673 154.738 294.901 154.669 292.508C154.462 282.289 165.741 272.337 169.686 275.224C173.63 278.111 178.197 280.58 185.913 276.249C193.629 271.919 194.425 282.555 192.037 289.507C189.65 296.458 186.674 300.979 190.861 305.993C199.995 317.047 195.324 325.746 192.383 330.115C191.726 331.102 191.138 331.862 190.826 332.356C181.83 347.057 197.435 367.835 199.822 388.804C200.376 393.553 200.237 398.301 198.992 403.011Z" fill="url(#paint10_linear_345_2)"/>
<path d="M189.338 419.612C180.065 429.374 166.052 435.528 152.696 433.629C140.137 431.881 127.127 422.84 121.418 408.557C120.103 405.291 119.238 401.91 118.754 398.453C118.754 398.453 122.837 408.937 136.677 406.62C150.517 404.303 145.742 386.297 144.565 373.04C143.389 359.782 144.6 348.69 152.108 337.636C159.617 326.582 160.62 319.402 160.62 319.402L182.556 323.961C182.556 323.961 183.248 331.824 192.383 330.077C191.725 331.064 191.137 331.824 190.826 332.318C181.83 347.019 197.434 367.798 199.822 388.766C196.742 392.185 187.746 403.505 189.338 419.612Z" fill="black"/>
<path d="M193.629 629.793C190.653 628.615 186.12 618.777 186.12 618.777L185.705 629.565L181.38 629.147C181.38 629.147 179.823 617.181 183.179 606.051C183.387 605.291 183.698 604.721 184.01 604.19C187.401 599.061 195.843 606.051 195.843 606.051C195.843 606.051 198.161 612.889 202.694 618.549C205.912 622.537 210.721 625.576 212.797 627.779C213.143 628.159 213.454 628.539 213.627 628.881C216.188 633.857 196.604 631.008 193.629 629.793Z" fill="url(#paint11_linear_345_2)"/>
<path d="M193.629 629.793C190.653 628.615 186.12 618.776 186.12 618.776L185.705 629.565L181.38 629.147C181.38 629.147 179.823 617.181 183.179 606.051C183.387 605.291 183.698 604.721 184.01 604.189L189.027 606.811C189.027 606.811 190.861 624.285 200.791 626.602C207.607 628.197 211.205 628.007 212.832 627.741C213.178 628.121 213.489 628.501 213.662 628.843C216.188 633.857 196.604 631.008 193.629 629.793Z" fill="#4C1A13"/>
<path d="M149.548 620.676C146.918 618.776 144.496 608.102 144.496 608.102L141.867 618.51L137.715 617.029C137.715 617.029 138.649 604.987 144.185 594.959C144.635 594.123 145.154 593.515 145.673 593.097C150.032 589.602 156.503 598.074 156.503 598.074C156.503 598.074 157.368 605.329 160.655 611.939C162.834 616.345 166.606 620.296 168.336 622.993C168.751 623.639 169.062 624.209 169.201 624.702C170.689 630.21 152.212 622.537 149.548 620.676Z" fill="url(#paint12_linear_345_2)"/>
<path d="M149.548 620.676C146.918 618.776 144.496 608.102 144.496 608.102L141.867 618.511L137.715 617.029C137.715 617.029 138.649 604.987 144.185 594.959C144.635 594.123 145.154 593.515 145.673 593.097L150.897 597.39C150.897 597.39 147.334 611.179 155.361 617.979C161.485 623.145 166.364 623.259 168.336 622.993C168.751 623.639 169.062 624.209 169.201 624.702C170.689 630.21 152.212 622.537 149.548 620.676Z" fill="#4C1A13"/>
<path d="M182.384 505.006C181.242 510.02 180.1 514.882 179.062 519.555C174.772 538.358 171.243 554.161 168.267 566.658C168.267 566.696 168.267 566.696 168.267 566.696C168.198 567.038 168.094 567.342 168.025 567.646C163.077 588.311 159.617 599.517 156.676 599.669C151.555 599.897 141.071 600.96 145.812 582.537C149.41 568.558 153.977 529.773 156.019 496.687C156.226 493.192 156.399 489.773 156.572 486.468C156.884 479.668 157.057 473.325 157.057 467.665C157.057 432.983 162.385 404.986 162.385 404.986H184.218C184.148 404.986 196.155 445.176 182.384 505.006Z" fill="url(#paint13_linear_345_2)"/>
<path d="M168.232 566.659C172.107 548.843 160.274 509.868 155.983 496.687C156.191 493.192 156.364 489.773 156.537 486.468L179.027 519.555C174.771 538.358 171.242 554.161 168.232 566.659Z" fill="url(#paint14_linear_345_2)"/>
<path d="M196.119 359.706C196.119 359.706 179.857 338.586 180.515 333.039C180.515 333.039 182.521 332.812 185.462 332.508C192.278 331.786 204.112 330.57 208.125 330.57C211.931 330.57 212.969 335.813 214.076 340.333C214.665 342.688 215.253 344.815 216.291 345.879C219.301 348.956 196.119 359.706 196.119 359.706Z" fill="url(#paint15_linear_345_2)"/>
<path d="M196.119 359.706C196.119 359.706 179.857 338.586 180.515 333.04C180.515 333.04 182.521 332.812 185.462 332.508C187.365 334.407 193.213 339.915 200.098 342.156C205.876 344.018 211.585 343.106 214.388 341.549C214.976 343.904 215.253 344.816 216.291 345.879C219.301 348.956 196.119 359.706 196.119 359.706Z" fill="#D14B7F"/>
<path d="M198.092 575.244C197.504 596.402 199.268 606.507 195.704 607.153C192.141 607.798 180.273 612.357 180.861 601.607C181.449 590.856 182.487 529.66 159.271 492.85C136.089 456.041 139.03 410.153 156.849 401.682C173.976 399.403 173.976 407.874 173.976 407.874C173.976 407.874 186.224 446.278 192.141 482.1C192.833 486.355 193.49 490.647 194.044 494.864C195.116 502.993 195.947 511.046 196.569 518.833C198.369 541.207 198.472 561.454 198.092 575.244Z" fill="url(#paint16_linear_345_2)"/>
<path d="M164.218 406.62C164.218 406.62 153.077 428.5 169.27 470.78C185.463 513.059 187.296 532.926 188.992 560.619C190.687 588.311 188.992 608.596 188.992 608.596" stroke="#D7C2FF" stroke-width="2" stroke-miterlimit="10"/>
<path d="M160.481 427.285C160.481 427.285 172.488 430.324 172.003 411.71" stroke="#D7C2FF" stroke-width="2" stroke-miterlimit="10"/>
<path d="M175.256 321.605C175.256 321.605 176.26 334.407 178.405 336.382C180.585 338.32 165.153 338.32 165.36 334.445C165.568 330.532 165.36 320.124 165.36 320.124C165.36 320.124 170.896 318.794 175.256 321.605Z" fill="url(#paint17_linear_345_2)"/>
<path d="M182.176 291.444C182.176 291.444 189.892 316.629 186.916 322.061C183.94 327.493 167.332 322.061 167.332 322.061C167.332 322.061 162.004 324.682 160.62 319.44C159.236 314.236 162.212 308.804 167.159 312.716C172.107 316.629 183.767 302.726 182.176 291.444Z" fill="#FEC1BE"/>
<path d="M193.94 377.294C188.888 386.069 189.199 404.644 187.608 409.849C187.054 411.672 183.387 412.736 178.646 413.153C169.823 413.951 157.298 412.584 154.219 409.849C149.479 405.632 156.295 396.515 155.118 385.119C154.53 379.421 151.935 371.064 149.859 363.581C147.783 356.021 146.192 349.336 147.679 347.056C150.655 342.498 165.395 334.483 165.395 334.483C165.395 334.483 168.751 333.723 176.017 332.925C183.283 332.128 186.847 335.698 196.154 347.74C205.461 359.706 198.991 368.519 193.94 377.294Z" fill="url(#paint18_linear_345_2)"/>
<path d="M178.647 413.192C169.824 413.99 157.298 412.622 154.219 409.887C149.479 405.67 156.295 396.554 155.119 385.158C154.53 379.46 151.935 371.102 149.859 363.619L158.994 354.426C158.994 354.426 163.803 373.8 162.8 385.499C161.796 397.161 163.25 412.546 178.647 413.192Z" fill="#D14B7F"/>
<path d="M140.275 378.472C133.321 385.271 127.266 388.918 122.11 390.248C116.125 391.767 111.315 390.134 107.648 386.639C100.831 380.143 66.8541 331.9 65.9891 328.671C65.0895 325.404 69.5529 322.821 71.9057 325.746C74.2931 328.671 114.222 373.609 116.99 373.609C119.412 373.609 122.387 372.166 125.051 370.381C129.065 367.759 132.421 364.493 132.421 364.493C132.421 364.493 138.788 363.999 140.275 378.472Z" fill="#FEC1BE"/>
<path d="M140.275 378.472C133.321 385.272 127.266 388.918 122.11 390.248C129.792 384.854 126.228 373.496 125.051 370.381C129.065 367.76 132.421 364.493 132.421 364.493C132.421 364.493 138.788 363.999 140.275 378.472Z" fill="url(#paint19_linear_345_2)"/>
<path d="M156.019 366.05C156.019 366.05 154.739 367.531 152.905 369.545C152.905 369.545 152.905 369.545 152.87 369.545C148.995 373.837 142.56 380.713 140.276 381.814C138.373 382.726 134.359 378.092 131.73 373.04C129.619 369.013 128.374 364.72 129.758 362.783C132.872 358.377 149.341 345.119 149.341 345.119C153.459 345.651 156.988 348.538 158.545 352.679C160.171 357.237 159.202 362.517 156.019 366.05Z" fill="url(#paint20_linear_345_2)"/>
<path d="M152.869 369.583C148.994 373.875 142.558 380.751 140.275 381.853C138.372 382.764 134.358 378.13 131.729 373.078C138.822 382.005 152.246 370.115 152.869 369.583Z" fill="#D14B7F"/>
<path d="M58.0657 331.596C59.3805 333.837 62.0793 334.521 64.1207 333.078L85.0191 318.453L80.3135 310.323L59.4151 324.948C57.3391 326.354 56.7509 329.355 58.0657 331.596Z" fill="#5574D8"/>
<path d="M82.7701 234.426L27.6523 272.945L34.5723 279.327C40.5235 282.214 47.1667 286.088 54.0521 291.292C59.8303 295.661 64.8819 300.295 69.2415 304.93C76.5421 312.679 81.9743 320.352 85.8841 326.696C86.1955 326.962 87.1297 327.798 88.5829 327.874C89.5517 327.95 90.5551 327.684 91.4201 327.076L100.416 320.77C101.281 320.162 101.904 319.289 102.285 318.301C102.804 316.82 102.561 315.528 102.458 315.11C98.7899 308.387 94.6033 299.422 91.2817 288.481C89.4133 282.404 87.8217 275.718 86.7145 268.462C85.3305 259.422 84.9499 251.178 85.0883 244.037L82.7701 234.426Z" fill="#B7C5FF"/>
<path d="M61.4609 264.484C76.6785 253.848 86.2115 240.392 82.7533 234.428C79.2952 228.463 64.1555 232.25 48.9378 242.885C33.7201 253.52 24.1872 266.976 27.6453 272.941C31.1035 278.905 46.2432 275.119 61.4609 264.484Z" fill="#92ACFF"/>
<path d="M50.0383 244.758C36.5789 254.179 27.8251 265.613 30.5585 270.285C31.5619 271.995 33.9493 272.565 37.2363 272.147C42.9453 271.387 51.3185 267.664 59.8647 261.7C68.4109 255.736 75.0195 248.975 78.0643 243.619C79.8289 240.542 80.3479 237.883 79.3791 236.173C76.6111 231.501 63.4977 235.337 50.0383 244.758Z" fill="#748FFE"/>
<path d="M59.8301 261.7C57.9271 263.03 56.0587 264.245 54.2249 265.309C47.7201 269.146 41.6651 271.539 37.2363 272.109C37.0979 271.957 36.9595 271.805 36.8903 271.615C34.6067 267.702 41.9419 258.13 53.2215 250.228C64.5357 242.327 75.5385 239.098 77.7875 243.011C77.8913 243.201 77.9605 243.391 78.0297 243.581C75.6769 247.759 71.1443 252.773 65.1931 257.598C63.5323 259.003 61.7331 260.371 59.8301 261.7Z" fill="#5574D8"/>
<path d="M87.0254 323.619L89.7934 328.405C90.9698 330.419 93.3918 331.026 95.2256 329.735L100.969 325.746C102.803 324.455 103.357 321.795 102.18 319.782L99.4122 314.996L87.0254 323.619Z" fill="#B7C5FF"/>
<path d="M69.2412 304.929C76.5418 312.679 81.974 320.352 85.8838 326.696C86.1952 326.962 87.1294 327.797 88.5826 327.873C89.5514 327.949 90.5549 327.683 91.4199 327.076L100.416 320.77C101.281 320.162 101.904 319.288 102.284 318.301C102.803 316.819 102.561 315.528 102.457 315.11C98.7897 308.386 94.6031 299.421 91.2815 288.481C88.3405 291.444 84.8112 294.597 80.7284 297.636C76.7148 300.637 72.8396 303.03 69.2412 304.929Z" fill="#748FFE"/>
<path d="M59.8307 261.701C57.9277 263.03 56.0593 264.246 54.2255 265.309L51.4921 260.561C49.9351 257.902 50.6617 254.331 53.0837 252.622L55.2289 251.102C57.6509 249.393 60.9033 250.191 62.4603 252.85L65.1937 257.598C63.5329 259.003 61.7337 260.371 59.8307 261.701Z" fill="#B7C5FF"/>
<path d="M54.1562 251.9C52.4954 253.04 51.6304 254.787 52.2186 255.775C52.8068 256.763 54.606 256.649 56.2322 255.509C57.893 254.369 58.758 252.622 58.1698 251.634C57.6162 250.609 55.817 250.761 54.1562 251.9Z" fill="white"/>
<path d="M70.1064 318.643C70.1064 318.643 63.394 318.339 62.4598 323.999C62.01 326.734 66.8886 329.811 69.0684 327.304C71.5596 324.455 68.2034 320.732 69.4144 321.34C72.1478 322.745 72.2516 319.782 70.1064 318.643Z" fill="url(#paint21_linear_345_2)"/>
<path d="M196.569 518.871C190.549 518.757 185.705 513.363 185.705 506.715C185.705 501.017 189.269 496.269 194.044 494.939C195.151 503.03 195.947 511.084 196.569 518.871Z" fill="#B485FF"/>
<path d="M384.541 623.984H272.057L282.99 495.854H373.608L384.541 623.984Z" fill="#B7C5FF"/>
<path d="M299.504 521.341C302.753 521.341 305.386 518.466 305.386 514.921C305.386 511.375 302.753 508.501 299.504 508.501C296.256 508.501 293.622 511.375 293.622 514.921C293.622 518.466 296.256 521.341 299.504 521.341Z" fill="#7475DA"/>
<path d="M358.047 521.341C361.296 521.341 363.929 518.466 363.929 514.921C363.929 511.375 361.296 508.501 358.047 508.501C354.799 508.501 352.165 511.375 352.165 514.921C352.165 518.466 354.799 521.341 358.047 521.341Z" fill="#7475DA"/>
<path d="M299.894 514.601C299.894 495.465 312.885 479.926 328.894 479.926C344.902 479.926 357.894 495.438 357.894 514.601" stroke="#7475DA" stroke-width="10" stroke-miterlimit="10"/>
<path opacity="0.7" d="M385.001 623.981H272.517C336.976 600.847 374.068 495.851 374.068 495.851L385.001 623.981Z" fill="#B7C5FF"/>
<ellipse cx="533.929" cy="675.181" rx="7.02536" ry="7.71878" fill="#FD8589"/>
<ellipse cx="125.99" cy="108.41" rx="14.0507" ry="15.4376" fill="#7475DA"/>
<ellipse cx="604.441" cy="58.0647" rx="10.5381" ry="11.5782" fill="#FD8589"/>
<ellipse cx="10.5381" cy="552.646" rx="10.5381" ry="11.5782" fill="#EAF0FF"/>
<ellipse cx="787.265" cy="162.702" rx="7.69608" ry="8.45206" fill="#7475DA"/>
<defs>
<linearGradient id="paint0_linear_345_2" x1="666.26" y1="607.101" x2="656.655" y2="618.112" gradientUnits="userSpaceOnUse">
<stop stop-color="#8A3D28"/>
<stop offset="1" stop-color="#5B2015"/>
</linearGradient>
<linearGradient id="paint1_linear_345_2" x1="596.965" y1="607.315" x2="605.466" y2="615.803" gradientUnits="userSpaceOnUse">
<stop stop-color="#8A3D28"/>
<stop offset="1" stop-color="#5B2015"/>
</linearGradient>
<linearGradient id="paint2_linear_345_2" x1="600.971" y1="313.252" x2="599.663" y2="325.493" gradientUnits="userSpaceOnUse">
<stop stop-color="#FEC1BE"/>
<stop offset="1" stop-color="#FF8B89"/>
</linearGradient>
<linearGradient id="paint3_linear_345_2" x1="558.054" y1="352.78" x2="608.341" y2="352.78" gradientUnits="userSpaceOnUse">
<stop stop-color="#9D58FF"/>
<stop offset="1" stop-color="#4801E4"/>
</linearGradient>
<linearGradient id="paint4_linear_345_2" x1="599.773" y1="381.154" x2="657.758" y2="381.154" gradientUnits="userSpaceOnUse">
<stop stop-color="#9D58FF"/>
<stop offset="1" stop-color="#4801E4"/>
</linearGradient>
<linearGradient id="paint5_linear_345_2" x1="575.778" y1="384.597" x2="594.746" y2="397.651" gradientUnits="userSpaceOnUse">
<stop stop-color="#FF8B89"/>
<stop offset="1" stop-color="#FF6E6B"/>
</linearGradient>
<linearGradient id="paint6_linear_345_2" x1="621.982" y1="337.214" x2="630.168" y2="335.395" gradientUnits="userSpaceOnUse">
<stop stop-color="#FEC1BE"/>
<stop offset="1" stop-color="#FF8B89"/>
</linearGradient>
<linearGradient id="paint7_linear_345_2" x1="629.003" y1="470.046" x2="638.099" y2="463.069" gradientUnits="userSpaceOnUse">
<stop stop-color="#FEC1BE"/>
<stop offset="1" stop-color="#FF8B89"/>
</linearGradient>
<linearGradient id="paint8_linear_345_2" x1="634.565" y1="405.763" x2="673.067" y2="405.763" gradientUnits="userSpaceOnUse">
<stop stop-color="#9D58FF"/>
<stop offset="1" stop-color="#4801E4"/>
</linearGradient>
<linearGradient id="paint9_linear_345_2" x1="222.865" y1="330.836" x2="222.865" y2="347.285" gradientUnits="userSpaceOnUse">
<stop stop-color="#FF8B89"/>
<stop offset="1" stop-color="#FEC1BE" stop-opacity="0"/>
</linearGradient>
<linearGradient id="paint10_linear_345_2" x1="129.508" y1="334.649" x2="178.991" y2="355.098" gradientUnits="userSpaceOnUse">
<stop/>
<stop offset="1"/>
</linearGradient>
<linearGradient id="paint11_linear_345_2" x1="201.719" y1="615.254" x2="188.683" y2="622.322" gradientUnits="userSpaceOnUse">
<stop stop-color="#8A3D28"/>
<stop offset="1" stop-color="#5B2015"/>
</linearGradient>
<linearGradient id="paint12_linear_345_2" x1="159.516" y1="608.574" x2="146.529" y2="613.564" gradientUnits="userSpaceOnUse">
<stop stop-color="#8A3D28"/>
<stop offset="1" stop-color="#5B2015"/>
</linearGradient>
<linearGradient id="paint13_linear_345_2" x1="196.331" y1="511.118" x2="154.442" y2="500.451" gradientUnits="userSpaceOnUse">
<stop stop-color="#9D58FF"/>
<stop offset="1" stop-color="#4801E4"/>
</linearGradient>
<linearGradient id="paint14_linear_345_2" x1="186.047" y1="533.821" x2="157.512" y2="526.555" gradientUnits="userSpaceOnUse">
<stop stop-color="#9D58FF"/>
<stop offset="1" stop-color="#4801E4"/>
</linearGradient>
<linearGradient id="paint15_linear_345_2" x1="198.245" y1="333.413" x2="199.496" y2="355.378" gradientUnits="userSpaceOnUse">
<stop stop-color="#FF8D88"/>
<stop offset="1" stop-color="#F3658E"/>
</linearGradient>
<linearGradient id="paint16_linear_345_2" x1="209.601" y1="506.647" x2="153.531" y2="504.443" gradientUnits="userSpaceOnUse">
<stop stop-color="#9D58FF"/>
<stop offset="1" stop-color="#4801E4"/>
</linearGradient>
<linearGradient id="paint17_linear_345_2" x1="167.766" y1="332.457" x2="176.553" y2="325.617" gradientUnits="userSpaceOnUse">
<stop stop-color="#FEC1BE"/>
<stop offset="1" stop-color="#FF9694"/>
</linearGradient>
<linearGradient id="paint18_linear_345_2" x1="184.371" y1="339.591" x2="153.71" y2="398.584" gradientUnits="userSpaceOnUse">
<stop stop-color="#FF8D88"/>
<stop offset="1" stop-color="#F3658E"/>
</linearGradient>
<linearGradient id="paint19_linear_345_2" x1="131.193" y1="364.491" x2="131.193" y2="390.248" gradientUnits="userSpaceOnUse">
<stop stop-color="#FF8B89"/>
<stop offset="1" stop-color="#E56A6A" stop-opacity="0"/>
</linearGradient>
<linearGradient id="paint20_linear_345_2" x1="139.953" y1="354.839" x2="150.816" y2="368.692" gradientUnits="userSpaceOnUse">
<stop stop-color="#FF8D88"/>
<stop offset="1" stop-color="#F3658E"/>
</linearGradient>
<linearGradient id="paint21_linear_345_2" x1="69.8407" y1="326.205" x2="63.7832" y2="319.992" gradientUnits="userSpaceOnUse">
<stop stop-color="#FFAEAE"/>
<stop offset="1" stop-color="#F47272"/>
</linearGradient>
</defs>
</svg>
