<svg width="926" height="1024" viewBox="0 0 926 1024" fill="none" xmlns="http://www.w3.org/2000/svg">
<rect width="926" height="1024" fill="#F5F5F5"/>
<rect width="926" height="1024" fill="white"/>
<path fill-rule="evenodd" clip-rule="evenodd" d="M591.196 288.797C591.64 289.055 592.243 289.241 592.956 289.614C595.276 295.193 596.154 296.833 595.698 297.387C595.325 297.843 595.369 297.596 595.15 298.72C594.876 300.251 600.239 306.866 601.062 308.967C601.825 310.733 601.894 312.721 601.254 314.535C600.002 318.105 598.062 321.394 595.545 324.217C593.417 326.609 591.07 328.128 589.035 327.667C586.523 327.119 586.951 324.848 587.324 322.621C587.461 321.825 588.969 320.064 588.854 319.28C588.185 314.815 584.917 310.915 582.52 307.047C580.464 305.133 576.998 303.12 575.078 300.904C572.336 297.7 571.788 294.321 575.226 292.374C576.323 291.748 579.065 288.638 580.502 288.759C583.227 288.978 587.768 286.789 591.196 288.797Z" fill="#202249"/>
<path fill-rule="evenodd" clip-rule="evenodd" d="M498.477 275.994C496.612 281.073 498.065 285.577 502.145 287.513L502.222 287.59L502.721 287.76C503.157 287.93 503.604 288.072 504.059 288.183C508.94 289.631 516.24 290.925 520.704 291.798C538.505 295.199 565.031 297.321 577.491 302.077C582.378 298.49 583.825 291.825 580.628 287.815C567.039 281.337 548.683 272.922 540.984 270.069C538.909 269.383 536.742 269.013 534.556 268.972C546.029 258.627 558.171 247.425 562.893 237.875C566.232 231.111 566.77 221.726 569.095 215.856C550.372 221.342 546.791 210.036 543.353 206.064C540.402 210.387 540.474 209.586 537.485 214.21C527.394 229.844 512.51 252.017 502.387 268.479C500.72 270.865 499.135 273.619 498.477 275.994Z" fill="url(#paint0_linear_0_1)"/>
<g style="mix-blend-mode:multiply" opacity="0.3">
<path fill-rule="evenodd" clip-rule="evenodd" d="M559.564 278.034C551.93 274.579 545.003 271.572 540.984 270.086C538.908 269.399 536.742 269.029 534.556 268.989C546.029 258.643 558.171 247.442 562.893 237.891C566.232 231.128 566.77 221.742 569.095 215.873C563.819 217.414 559.772 217.628 556.542 217.047L557.046 220.705C542.601 235.094 516.333 268.528 513.887 290.371C522.716 292.428 546.835 295.522 550.707 295.956C551.71 289.483 555.944 284.321 559.564 278.029V278.034ZM546.402 210.36C545.184 208.714 544.263 207.151 543.353 206.097C541.472 208.84 540.819 209.526 539.821 210.848L546.402 210.36Z" fill="#1E2353"/>
</g>
<path fill-rule="evenodd" clip-rule="evenodd" d="M557.233 361.294C559.86 364.941 552.769 383.236 551.041 387.075C549.522 390.476 550.005 392.561 553.608 392.616C556.449 392.66 560.957 388.633 563.704 386C568.854 381.063 569.15 376.033 570.647 373.894L572.402 373.345C573.685 372.621 577.48 367.662 577.688 365.786C577.148 364.047 576.494 362.344 575.731 360.69C572.928 355.512 572.314 357.777 568.601 354.612C564.406 357.679 567.395 358.896 557.233 361.294Z" fill="#202249"/>
<path fill-rule="evenodd" clip-rule="evenodd" d="M523.61 298.55C531.288 313.443 550.433 347.026 557.189 361.957C563.145 363.213 569.188 359.763 569.709 355.046C565.361 340.734 558.302 317.168 554.815 309.653C552.511 304.689 548.234 298.062 544.324 293.01C555.687 277.102 573.691 252.071 578.873 237.392C585.948 217.43 577.831 206.032 566.929 199.762C563.057 197.529 558.884 201.106 556.915 198.719C552.264 207.798 548.064 220.146 545.338 231.254C541.543 246.745 523.446 279.625 522.075 290.678C521.872 292.824 522.251 294.984 523.171 296.932C523.292 297.453 523.435 297.991 523.61 298.55Z" fill="url(#paint1_linear_0_1)"/>
<path opacity="0.3" fill-rule="evenodd" clip-rule="evenodd" d="M828.536 890.909L305.02 596.375C298.439 593.364 288.699 590.528 282.217 594.483L265.633 604.614C262.299 606.649 251.33 613.391 258.668 617.396C280.253 629.107 763.649 902.582 785.569 914.48C789.715 916.729 795.78 917.535 802.147 916.998C808.514 916.46 815.067 914.738 820.102 911.627L826.727 907.535C831.41 904.639 834.004 901.501 834.251 898.451C834.498 895.401 832.595 892.752 828.536 890.909Z" fill="#955CF1"/>
<path fill-rule="evenodd" clip-rule="evenodd" d="M365.065 116.459C361.456 114.407 357.223 113.645 353.263 115.142L344.401 118.603C341.187 135.252 800.595 899.23 804.702 903.465L812.611 900.481C817.804 898.435 820.524 893.031 821.286 887.776L888.05 431.963C888.05 431.963 888.05 431.925 888.05 431.914C889.146 424.234 886.832 416.264 882.62 409.862C880.35 406.412 877.367 403.247 873.703 401.261L365.065 116.459Z" fill="url(#paint2_linear_0_1)"/>
<path fill-rule="evenodd" clip-rule="evenodd" d="M864.978 404.634L356.34 119.81C346.721 114.478 337.557 119.596 335.862 131.204L269.099 587.05C267.399 598.657 273.799 612.404 283.418 617.736L792.056 902.538C801.675 907.87 810.861 902.763 812.561 891.155L879.319 435.337C881.019 423.708 874.597 409.994 864.978 404.634Z" fill="url(#paint3_linear_0_1)"/>
<path fill-rule="evenodd" clip-rule="evenodd" d="M864.978 404.634L356.34 119.81C346.721 114.478 337.557 119.596 335.862 131.204L333.608 146.563L877.043 450.85L879.319 435.299C881.019 423.708 874.597 409.994 864.978 404.634Z" fill="#4A9FF8"/>
<path fill-rule="evenodd" clip-rule="evenodd" d="M353.175 131.176C357.014 132.059 359.998 136.662 359.795 141.44C359.592 146.218 356.301 149.388 352.446 148.505C348.591 147.622 345.624 143.02 345.827 138.242C346.03 133.464 349.32 130.293 353.175 131.176Z" fill="#5858F0"/>
<path fill-rule="evenodd" clip-rule="evenodd" d="M370.746 141.27C374.585 142.153 377.563 146.755 377.36 151.528C377.157 156.3 373.867 159.476 370.011 158.593C366.156 157.71 363.189 153.107 363.392 148.335C363.595 143.563 366.886 140.386 370.746 141.27Z" fill="#5858F0"/>
<path fill-rule="evenodd" clip-rule="evenodd" d="M389.743 152.35C393.582 153.234 396.565 157.836 396.363 162.614C396.16 167.392 392.869 170.562 389.008 169.679C385.148 168.796 382.192 164.194 382.395 159.416C382.598 154.638 385.904 151.467 389.743 152.35Z" fill="#5858F0"/>
<path style="mix-blend-mode:multiply" opacity="0.5" fill-rule="evenodd" clip-rule="evenodd" d="M803.123 562.65L711.753 512.474C706.45 509.539 701.262 509.123 696.946 510.829C691.385 513.023 687.228 518.618 686.027 526.813L675.673 601.142C673.534 615.728 681.574 633.002 693.661 639.711L785.037 689.881C797.129 696.584 808.668 690.166 810.812 675.58L821.166 601.252C823.283 586.627 815.21 569.353 803.123 562.65Z" fill="url(#paint4_linear_0_1)"/>
<path style="mix-blend-mode:multiply" opacity="0.5" fill-rule="evenodd" clip-rule="evenodd" d="M669.366 301.238L869.705 398.979L864.402 404.399L845.175 538.832C843.212 552.623 832.721 558.734 821.769 552.469L634.246 445.222L617.958 408.897L669.366 301.238Z" fill="url(#paint5_linear_0_1)"/>
<path style="mix-blend-mode:multiply" opacity="0.5" fill-rule="evenodd" clip-rule="evenodd" d="M417.789 508.651L293.931 439.978L289.79 446.297L269.455 584.867L397.739 655.992C411.318 663.518 424.277 656.31 426.679 639.93L438.031 551.975C440.433 535.612 431.368 516.177 417.789 508.651Z" fill="url(#paint6_linear_0_1)"/>
<path fill-rule="evenodd" clip-rule="evenodd" d="M412.31 539.035L397.503 636.277L399.851 636.562L406.256 634.071C413.281 631.329 416.966 623.989 417.997 616.88L428.878 532.562C428.88 532.538 428.88 532.515 428.878 532.491C430.353 522.118 427.233 511.322 421.529 502.655C418.463 497.987 414.4 493.708 409.464 491.02L152.759 348.677C147.873 345.901 142.153 344.87 136.795 346.894L131.146 349.088C128.306 350.185 127.423 351.008 127.445 351.189C130.105 376.05 416.067 513.544 412.31 539.035Z" fill="#D0E7FF"/>
<path fill-rule="evenodd" clip-rule="evenodd" d="M403.026 493.56L146.305 351.217C140.596 348.057 135.013 347.607 130.346 349.428C124.363 351.76 119.882 357.816 118.593 366.636L107.707 450.96C105.41 466.665 114.064 485.266 127.077 492.479L383.804 634.823C396.823 642.036 409.245 635.125 411.548 619.425L422.428 535.096C424.732 519.397 416.067 500.779 403.026 493.56Z" fill="url(#paint7_linear_0_1)"/>
<path opacity="0.5" fill-rule="evenodd" clip-rule="evenodd" d="M399.982 519.803L222.808 422.325C222.241 421.97 221.602 421.747 220.937 421.673C220.272 421.599 219.6 421.676 218.969 421.897C217.537 422.446 216.468 423.905 216.161 426.012L215.207 431.936C214.658 435.688 216.726 440.164 219.835 441.859L397.01 539.337C400.125 541.059 403.092 539.408 403.64 535.656L404.622 529.737C405.17 525.985 403.092 521.509 399.982 519.808V519.803ZM301.318 542.743C304.427 544.466 306.506 548.914 305.952 552.672L304.976 558.591C304.427 562.343 301.46 563.994 298.345 562.272L209.24 514.295C206.125 512.567 204.058 508.119 204.606 504.367L205.588 498.453C205.895 496.341 206.964 494.893 208.395 494.339C209.026 494.117 209.698 494.039 210.363 494.112C211.028 494.185 211.667 494.407 212.234 494.762L301.318 542.743ZM394.679 556.018C397.789 557.741 399.867 562.189 399.313 565.947L398.337 571.86C397.789 575.618 394.822 577.269 391.707 575.547L214.538 478.069C211.423 476.347 209.355 471.898 209.904 468.146L210.885 462.227C211.192 460.115 212.262 458.667 213.693 458.113C214.324 457.89 214.996 457.813 215.661 457.886C216.325 457.959 216.965 458.181 217.532 458.535L394.679 556.018Z" fill="#FFFCF1"/>
<path opacity="0.5" fill-rule="evenodd" clip-rule="evenodd" d="M166.343 420.603C157.964 415.957 149.074 422.221 149.167 434.317C149.206 440.598 151.871 447.054 156.066 451.108C157.086 452.096 158.227 452.951 159.461 453.653C167.824 458.288 176.67 452.007 176.61 439.939C176.61 433.653 173.944 427.164 169.765 423.126C168.741 422.126 167.59 421.263 166.343 420.559V420.603ZM158.265 459.363C156.608 458.424 155.076 457.277 153.708 455.951C148.054 450.521 144.511 441.815 144.423 433.368C144.325 417.109 156.253 408.683 167.511 414.898C169.199 415.846 170.753 417.014 172.135 418.37C177.772 423.79 181.315 432.49 181.353 440.943C181.425 457.158 169.513 465.595 158.265 459.363V459.363ZM196.627 445.54C198.584 446.637 199.752 449.484 199.226 451.942L197.175 461.47C196.654 463.895 194.641 464.986 192.678 463.9L191.674 463.351C191.345 463.15 190.979 463.018 190.597 462.964C190.214 462.91 189.825 462.935 189.454 463.038C189.082 463.141 188.735 463.319 188.435 463.562C188.135 463.805 187.888 464.106 187.709 464.449C187.152 465.383 186.542 466.286 185.883 467.153C184.863 468.491 184.699 470.636 185.477 472.545L186.026 473.84C187.035 476.303 186.432 479.106 184.693 480.049L177.794 483.774C177.359 484 176.873 484.11 176.383 484.092C175.893 484.075 175.415 483.931 174.997 483.675C173.972 483.052 173.185 482.104 172.76 480.982L172.211 479.72C171.796 478.614 171.024 477.678 170.018 477.06C169.517 476.775 168.949 476.629 168.372 476.637C167.396 476.637 166.404 476.604 165.428 476.517C163.848 476.363 162.532 477.482 162.137 479.342L161.874 480.587C161.325 483.012 159.335 484.103 157.371 483.017L149.694 478.755C147.73 477.658 146.568 474.811 147.089 472.381L147.357 471.141C147.54 470.172 147.5 469.175 147.24 468.224C146.979 467.274 146.506 466.395 145.855 465.655C145.027 464.745 144.253 463.801 143.486 462.83C143.092 462.3 142.593 461.855 142.021 461.525C141.611 461.275 141.144 461.134 140.664 461.116C140.184 461.097 139.707 461.202 139.279 461.421L138.38 461.881C137.946 462.11 137.46 462.221 136.969 462.205C136.479 462.188 136.001 462.045 135.583 461.788C134.555 461.168 133.767 460.219 133.346 459.095L129.249 449.325C128.245 446.867 128.849 444.059 130.582 443.121L131.497 442.627C132.847 441.892 133.538 440.044 133.252 437.981C133.066 436.67 132.94 435.359 132.857 434.042C132.731 432.013 131.657 430.087 130.154 429.253L129.15 428.705C127.187 427.608 126.024 424.772 126.545 422.336L128.596 412.813C129.145 410.35 131.136 409.264 133.099 410.35L134.102 410.899C134.431 411.102 134.798 411.236 135.18 411.29C135.563 411.345 135.952 411.32 136.325 411.217C136.697 411.114 137.044 410.935 137.344 410.692C137.644 410.448 137.89 410.145 138.067 409.802C138.625 408.867 139.235 407.964 139.894 407.098C140.908 405.786 141.073 403.647 140.288 401.727L139.74 400.438C138.742 397.953 139.34 395.172 141.084 394.207L147.977 390.476C148.412 390.25 148.899 390.141 149.389 390.158C149.879 390.176 150.356 390.319 150.774 390.575C151.802 391.195 152.59 392.144 153.012 393.269L153.56 394.558C153.974 395.663 154.746 396.598 155.754 397.213C156.253 397.502 156.822 397.65 157.399 397.64C158.383 397.613 159.369 397.646 160.349 397.739C161.923 397.915 163.234 396.801 163.64 394.936L163.908 393.691C164.457 391.239 166.453 390.147 168.411 391.239L176.089 395.501C178.046 396.598 179.215 399.44 178.683 401.897L178.419 403.137C178.235 404.098 178.273 405.089 178.531 406.033C178.788 406.977 179.259 407.85 179.906 408.584C180.734 409.495 181.551 410.455 182.291 411.448C182.684 411.979 183.182 412.424 183.755 412.753C184.166 413.002 184.633 413.142 185.113 413.16C185.593 413.178 186.069 413.074 186.497 412.857L187.408 412.364C187.843 412.139 188.33 412.03 188.82 412.048C189.31 412.066 189.787 412.211 190.205 412.468C191.232 413.086 192.02 414.033 192.442 415.156L196.44 424.925C197.438 427.41 196.84 430.197 195.102 431.162L194.186 431.651C192.837 432.386 192.146 434.234 192.437 436.275C192.618 437.58 192.755 438.897 192.837 440.208C192.958 442.243 194.033 444.163 195.535 444.997L196.627 445.54Z" fill="#FFFCF1"/>
<path style="mix-blend-mode:multiply" opacity="0.5" fill-rule="evenodd" clip-rule="evenodd" d="M388.828 187.09L333.438 160.299L311.568 297.179L308.754 316.411L366.337 347.503C376.346 353.049 385.899 347.739 387.67 335.66L403.733 219.032C405.521 206.959 398.836 192.641 388.828 187.09Z" fill="url(#paint8_linear_0_1)"/>
<path fill-rule="evenodd" clip-rule="evenodd" d="M382.066 219.647L364.796 331.222L366.606 331.441L371.542 329.527C376.938 327.404 379.768 321.776 380.569 316.307L394.827 214.671C394.829 214.653 394.829 214.635 394.827 214.616C395.957 206.64 393.56 198.335 389.173 191.676C386.815 188.083 383.689 184.792 379.9 182.724L273.941 125.126C270.185 122.992 265.781 122.202 261.662 123.754L257.319 125.449C255.125 126.272 254.456 126.93 254.473 127.068C256.524 146.174 384.95 200.041 382.066 219.647Z" fill="#D0E7FF"/>
<path fill-rule="evenodd" clip-rule="evenodd" d="M374.936 184.676L268.984 127.079C264.596 124.649 260.297 124.303 256.71 125.702C252.109 127.496 248.665 132.153 247.672 138.938L233.414 240.579C231.648 252.647 238.3 266.954 248.309 272.505L354.267 330.103C364.275 335.649 373.829 330.333 375.6 318.26L389.859 216.619C391.624 204.54 384.945 190.222 374.936 184.676Z" fill="url(#paint9_linear_0_1)"/>
<path fill-rule="evenodd" clip-rule="evenodd" d="M355.309 302.9L248.857 245.747C246.4 244.43 244.058 245.785 243.581 248.835C243.115 251.786 244.711 255.253 247.168 256.575L353.614 313.729C356.066 315.045 358.462 313.729 358.939 310.657C359.394 307.717 357.76 304.222 355.309 302.9ZM360.063 271.962C362.515 273.278 364.155 276.778 363.694 279.718C363.217 282.768 360.826 284.107 358.369 282.785L251.928 225.637C249.471 224.315 247.875 220.842 248.336 217.897C248.813 214.847 251.16 213.508 253.617 214.808L360.063 271.962ZM371.032 201.797L264.585 144.649C262.129 143.327 259.781 144.687 259.326 147.633L258.125 155.197C257.67 158.143 259.266 161.615 261.717 162.937L368.163 220.085C370.609 221.402 373 220.085 373.467 217.123L374.646 209.553C375.112 206.619 373.467 203.119 371.015 201.797H371.032ZM364.868 241.292C367.319 242.609 368.964 246.059 368.509 249.005C368.021 252.104 365.641 253.394 363.189 252.066L256.743 194.912C254.286 193.601 252.685 190.173 253.14 187.233C253.628 184.133 255.97 182.844 258.421 184.139L364.868 241.292Z" fill="#FFFCF1"/>
<path fill-rule="evenodd" clip-rule="evenodd" d="M798.308 597.275L785.695 674.977L787.658 675.218L793.016 673.139C798.89 670.824 801.972 664.708 802.833 658.762L812.156 591.839C812.158 591.818 812.158 591.798 812.156 591.778C813.384 583.106 810.779 574.076 806.008 566.83C803.441 562.93 800.069 559.348 795.923 557.099L713.661 511.937C709.576 509.616 704.794 508.755 700.308 510.445L695.586 512.288C693.211 513.182 692.476 513.895 692.493 514.043C694.741 534.844 801.423 575.958 798.308 597.275Z" fill="#D0E7FF"/>
<path fill-rule="evenodd" clip-rule="evenodd" d="M790.532 559.249L708.27 514.081C703.499 511.437 698.827 511.064 694.922 512.584C689.92 514.537 686.147 519.6 685.1 526.972L675.777 593.896C673.858 607.028 681.091 622.579 691.977 628.619L774.238 673.781C785.124 679.815 795.511 674.039 797.436 660.907L806.759 593.983C808.684 580.851 801.418 565.283 790.532 559.249Z" fill="white"/>
<path fill-rule="evenodd" clip-rule="evenodd" d="M754.704 563.89C755.313 565.072 755.55 566.411 755.384 567.73C755.052 569.409 754.55 571.05 753.887 572.628L736.338 621.318C735.789 622.963 735.241 624.181 734.879 625.07C734.742 625.445 734.531 625.788 734.259 626.081C733.986 626.373 733.658 626.607 733.294 626.77C732.685 627.039 731.846 626.853 730.766 626.183C728.139 624.538 726.976 622.256 727.306 619.469C727.66 617.744 728.143 616.047 728.753 614.395L746.231 565.678C747.131 563.095 747.92 561.421 748.584 560.648C749.247 559.875 750.322 559.957 751.803 560.867C753.035 561.58 754.035 562.633 754.682 563.901L754.704 563.89ZM759.382 576.507L757.775 590.05L783.671 620.089L754.644 616.414L753.031 630.012L794.798 633.304L796.169 621.784L759.371 576.534L759.382 576.507ZM686.378 566.177L723.176 611.471L724.788 597.873L699.013 567.642L727.903 571.564L729.549 557.85L687.771 554.515L686.378 566.177Z" fill="url(#paint10_linear_0_1)"/>
<path fill-rule="evenodd" clip-rule="evenodd" d="M475.35 566.945C476.825 556.83 484.53 552.365 492.548 556.984L611.761 624.225C619.774 628.844 625.082 640.808 623.601 650.923L607.747 758.872C606.266 768.982 598.556 773.447 590.543 768.834L471.33 701.593C463.307 696.968 458.009 685.01 459.49 674.895L475.35 566.945Z" fill="white"/>
<path fill-rule="evenodd" clip-rule="evenodd" d="M489.855 676.979L531.441 619.359L539.503 680.457L559.761 658.433L571.695 723.765L489.855 676.979Z" fill="url(#paint11_linear_0_1)"/>
<path fill-rule="evenodd" clip-rule="evenodd" d="M558.363 621.916C562.805 622.821 566.156 628.026 565.837 633.545C565.519 639.063 561.659 642.799 557.211 641.894C552.763 640.989 549.418 635.783 549.731 630.265C550.043 624.746 553.915 621.01 558.363 621.916Z" fill="#FFDB59"/>
<path opacity="0.2" fill-rule="evenodd" clip-rule="evenodd" d="M485.029 582.393C486.263 573.989 492.658 570.275 499.321 574.12L598.375 629.963C605.032 633.803 609.442 643.742 608.213 652.146L595.051 741.834C593.823 750.238 587.412 753.946 580.754 750.112L481.706 694.242C475.037 690.402 470.639 680.463 471.868 672.059L485.029 582.393Z" fill="url(#paint12_linear_0_1)"/>
<path fill-rule="evenodd" clip-rule="evenodd" d="M636.237 660.413C637.712 650.298 645.417 645.832 653.435 650.451L772.648 717.693C780.66 722.312 785.969 734.275 784.488 744.391L768.634 852.335C767.153 862.444 759.442 866.91 751.43 862.291L632.217 795.077C624.194 790.453 618.896 778.494 620.377 768.379L636.237 660.413Z" fill="white"/>
<path fill-rule="evenodd" clip-rule="evenodd" d="M650.742 770.447L692.328 712.827L700.39 773.925L720.648 751.9L732.581 817.233L650.742 770.447Z" fill="url(#paint13_linear_0_1)"/>
<path fill-rule="evenodd" clip-rule="evenodd" d="M719.249 715.383C723.692 716.288 727.042 721.494 726.724 727.013C726.406 732.531 722.545 736.267 718.098 735.361C713.65 734.456 710.305 729.251 710.623 723.732C710.941 718.214 714.802 714.478 719.249 715.383Z" fill="#FFDB59"/>
<path opacity="0.2" fill-rule="evenodd" clip-rule="evenodd" d="M645.922 675.86C647.15 667.456 653.545 663.743 660.18 667.588L759.234 723.452C765.892 727.292 770.301 737.232 769.072 745.636L755.911 835.324C754.682 843.728 748.277 847.436 741.614 843.602L642.56 787.732C635.891 783.892 631.493 773.952 632.722 765.554L645.922 675.86Z" fill="url(#paint14_linear_0_1)"/>
<path fill-rule="evenodd" clip-rule="evenodd" d="M455.986 117.89C445.374 124.116 450.458 138.51 460.099 153.727C473.776 175.313 440.669 199.614 485.671 211.907C480.982 198.741 500.478 193.909 510.07 175.916C521.126 155.159 515.006 134.341 500.791 116.607C489.225 102.169 468.067 102.35 455.986 117.89Z" fill="url(#paint15_linear_0_1)"/>
<path fill-rule="evenodd" clip-rule="evenodd" d="M476.995 254.299L479.589 264.085C480.406 266.18 480.894 266.745 483.905 265.385C485.55 264.589 485.002 261.161 484.574 258.66C484.175 256.616 484.214 254.51 484.689 252.483C485.026 251.445 485.688 250.543 486.576 249.91C488.375 248.468 490.481 247.502 489.186 242.911C488.506 240.514 488.671 238.725 488.638 236.24L482.364 235.823C482.512 241.424 480.028 245.198 477.428 249.905C476.167 252.181 476.441 251.753 476.995 254.299Z" fill="url(#paint16_linear_0_1)"/>
<path fill-rule="evenodd" clip-rule="evenodd" d="M499.321 192.186L499.277 191.873C499.268 191.419 499.202 190.967 499.08 190.53C497.484 179.888 494.248 161.956 491.726 152.603C487.338 136.267 473.348 141.911 473.491 151.659C473.628 160.88 482.205 180.848 484.18 189.509C483.478 195.812 480.845 227.288 481.756 232.79C481.931 233.838 482.392 234.518 482.337 235.67C482.299 236.547 482.063 236.893 481.789 237.946C484.263 238.238 486.721 238.654 489.154 239.192C489.208 238.367 489.331 237.549 489.521 236.745C489.943 235.56 491.029 234.951 491.517 233.953C493.925 229.016 497.906 203.141 499.003 194.72C499.213 193.892 499.319 193.041 499.321 192.186V192.186Z" fill="url(#paint17_linear_0_1)"/>
<g style="mix-blend-mode:multiply" opacity="0.35">
<path fill-rule="evenodd" clip-rule="evenodd" d="M497.495 202.148C498.433 199.888 499.491 192.823 499.48 189.718C499.48 183.228 497.007 177.864 496.25 173.744L473.59 151.188C473.738 155.411 478.662 166.668 480.686 174.973C483.834 187.935 490.694 199.098 497.495 202.148Z" fill="#3469C0"/>
</g>
<path fill-rule="evenodd" clip-rule="evenodd" d="M567.587 203.684C564.39 214.249 549.391 222.57 534.364 219.263C530.778 215.269 529.708 216.52 526.429 213.294C523.44 210.365 519.755 206.361 514.6 201.128C511.732 196.629 500.423 194.786 495.405 192.828C489.762 190.634 484.761 186.004 482.43 177.046C481.3 172.702 476.398 159.41 474.61 154.978C469.493 142.164 480.593 137.38 488.101 142.12C492.905 144.128 503.505 146.645 508.743 147.605C511.771 148.222 514.83 148.678 517.907 148.971C524.142 149.575 530.909 154.128 535.752 157.984C548.782 168.363 566.441 189.197 567.587 203.684Z" fill="url(#paint18_linear_0_1)"/>
<path fill-rule="evenodd" clip-rule="evenodd" d="M492.252 136.953C493.762 142.716 496.857 147.94 501.186 152.032C499.595 157.715 488.748 161.813 485.282 157.973C485.013 157.211 484.651 155.51 484.278 154.956C483.73 153.31 483.143 151.829 482.633 150.655L492.252 136.953Z" fill="url(#paint19_linear_0_1)"/>
<path fill-rule="evenodd" clip-rule="evenodd" d="M460.74 129.35C461.289 133.672 462.649 137.32 466.373 141.039C467.137 141.739 467.682 142.646 467.941 143.65C469.356 148.812 470.464 149.865 473.776 152.23C476.995 154.523 478.202 156.113 480.039 156.305C481.876 156.497 483.664 155.483 485.046 154.495C487.876 152.466 491.046 146.925 492.532 143.266C493.629 140.557 492.949 139.876 492.252 137.304C493.069 132.57 489.795 132.268 488.704 132.855C485.578 134.533 487.678 137.995 486.642 139.986C475.652 142.416 464.278 132.559 460.74 129.35Z" fill="#FFA698"/>
<path fill-rule="evenodd" clip-rule="evenodd" d="M460.74 129.35C466.844 139.52 480.286 142.087 486.642 139.991C475.652 142.416 464.278 132.559 460.74 129.35Z" fill="#FF9080"/>
<g style="mix-blend-mode:multiply" opacity="0.35">
<path fill-rule="evenodd" clip-rule="evenodd" d="M531.781 216.652C531.69 216.678 531.596 216.696 531.502 216.706C529.857 215.609 528.634 215.472 526.413 213.294C523.424 210.365 519.738 206.361 514.583 201.128C513.119 198.835 509.467 197.233 505.573 195.949C506.187 185.433 505.919 161.39 509.363 158.275C514.123 153.958 520.665 151.089 526.133 156.706C536.465 167.304 526.193 206.542 531.781 216.652Z" fill="#3469C0"/>
</g>
<path fill-rule="evenodd" clip-rule="evenodd" d="M517.248 230.782L510.711 206.191L515.23 202.164L556.465 225.319L552.632 229.619L534.715 241.611L517.248 230.782Z" fill="#4A9FF8"/>
<path fill-rule="evenodd" clip-rule="evenodd" d="M510.733 206.262L507.728 196.662L559.202 225.231L552.577 229.669L510.733 206.262Z" fill="#D0E7FF"/>
<path style="mix-blend-mode:multiply" opacity="0.5" fill-rule="evenodd" clip-rule="evenodd" d="M426.487 264.447C429.152 244.743 444.096 236.257 459.863 245.538L622.664 340.619C638.414 349.889 649.037 373.416 646.366 393.12L621.55 580.933C618.885 600.637 603.919 609.112 588.174 599.842L425.352 504.762C409.585 495.48 398.979 471.964 401.649 452.26L426.487 264.447Z" fill="url(#paint20_linear_0_1)"/>
<path fill-rule="evenodd" clip-rule="evenodd" d="M432.234 263.361C432.525 261.232 432.942 251.72 435.525 249.784C438.974 247.173 445.259 243.371 447.118 242.872C451.966 241.578 457.538 242.433 463.28 245.791L615.408 333.976C630.04 342.588 639.911 364.448 637.432 382.758L614.399 557.28C613.533 563.67 611.273 568.799 608.076 572.387C605.915 574.817 600.859 578.213 596.642 580.396C592.255 582.645 586.151 576.479 583.381 574.85L431.203 486.665C416.55 478.047 406.695 456.193 409.179 437.888L432.234 263.361Z" fill="#D0E7FF"/>
<path fill-rule="evenodd" clip-rule="evenodd" d="M426.882 267.102C429.36 248.797 443.246 240.914 457.894 249.548L609.173 337.903C623.804 346.516 633.676 368.375 631.197 386.686L608.164 561.207C605.68 579.513 591.777 587.39 577.146 578.761L425.845 490.406C411.197 481.788 401.342 459.934 403.821 441.629L426.882 267.102Z" fill="white"/>
<path fill-rule="evenodd" clip-rule="evenodd" d="M426.882 267.102C429.36 248.797 443.246 240.914 457.894 249.548L609.173 337.903C623.804 346.516 633.676 368.375 631.197 386.686L628.85 404.009L424.49 284.661L426.882 267.102Z" fill="url(#paint21_linear_0_1)"/>
<path fill-rule="evenodd" clip-rule="evenodd" d="M451.203 267.788C454.532 268.577 457.077 272.571 456.885 276.707C456.693 280.843 453.836 283.553 450.502 282.741C447.167 281.929 444.628 277.958 444.82 273.822C445.012 269.685 447.875 266.998 451.203 267.788Z" fill="white"/>
<path fill-rule="evenodd" clip-rule="evenodd" d="M468.983 278.89C472.317 279.68 474.862 283.674 474.67 287.81C474.478 291.946 471.621 294.655 468.287 293.844C464.952 293.032 462.408 289.06 462.605 284.924C462.802 280.788 465.654 278.089 468.983 278.89Z" fill="white"/>
<path fill-rule="evenodd" clip-rule="evenodd" d="M486.768 289.965C490.102 290.755 492.647 294.754 492.455 298.885C492.263 303.015 489.406 305.736 486.071 304.919C482.737 304.102 480.193 300.136 480.384 295.999C480.576 291.863 483.439 289.175 486.768 289.965Z" fill="white"/>
<path opacity="0.2" fill-rule="evenodd" clip-rule="evenodd" d="M458.969 319.335C474.412 322.999 486.208 341.507 485.293 360.674C484.377 379.84 471.155 392.407 455.711 388.743C440.268 385.079 428.472 366.576 429.388 347.41C430.304 328.243 443.526 315.671 458.969 319.335Z" fill="url(#paint22_linear_0_1)"/>
<path fill-rule="evenodd" clip-rule="evenodd" d="M458.223 335.331C466.554 337.305 472.91 347.284 472.427 357.618C471.944 367.953 464.804 374.728 456.479 372.753C448.154 370.778 441.793 360.8 442.275 350.465C442.758 340.13 449.898 333.356 458.223 335.331Z" fill="url(#paint23_linear_0_1)"/>
<path opacity="0.2" fill-rule="evenodd" clip-rule="evenodd" d="M494.605 356.527C495.153 352.451 498.235 350.75 501.487 352.725L600.365 409.736C603.612 411.711 605.8 416.62 605.252 420.707L604.155 428.76C603.606 432.83 600.519 434.531 597.272 432.561L498.416 375.534C495.169 373.559 492.981 368.65 493.535 364.563L494.605 356.527Z" fill="#955CF1"/>
<path opacity="0.2" fill-rule="evenodd" clip-rule="evenodd" d="M490.651 386.148C490.974 383.746 492.795 382.742 494.715 383.905L553.104 417.575C555.023 418.738 556.312 421.64 555.988 424.042L555.358 428.798C555.029 431.201 553.208 432.21 551.288 431.042L492.921 397.377C491.002 396.209 489.713 393.312 490.037 390.904L490.651 386.148Z" fill="#955CF1"/>
<path opacity="0.2" fill-rule="evenodd" clip-rule="evenodd" d="M424.671 393.702C425.072 390.74 427.315 389.495 429.684 390.959L600.448 488.958C602.811 490.395 604.407 493.972 604.007 496.934L603.458 500.818C603.058 503.785 600.81 505.025 598.446 503.588L427.699 405.567C425.33 404.13 423.739 400.553 424.14 397.591L424.671 393.702Z" fill="#955CF1"/>
<path opacity="0.2" fill-rule="evenodd" clip-rule="evenodd" d="M421.101 422.446C421.502 419.484 423.745 418.239 426.114 419.703L596.878 517.674C599.241 519.112 600.837 522.688 600.437 525.656L599.888 529.54C599.488 532.507 597.24 533.747 594.876 532.282L424.129 434.311C421.76 432.874 420.169 429.297 420.569 426.33L421.101 422.446Z" fill="#955CF1"/>
<path opacity="0.2" fill-rule="evenodd" clip-rule="evenodd" d="M417.361 449.83C417.762 446.862 420.005 445.622 422.374 447.087L593.137 545.086C595.501 546.523 597.097 550.099 596.696 553.061L596.148 556.945C595.748 559.913 593.499 561.153 591.136 559.688L420.388 461.689C418.019 460.252 416.429 456.676 416.829 453.713L417.361 449.83Z" fill="#955CF1"/>
<path fill-rule="evenodd" clip-rule="evenodd" d="M638.003 247.469C638.551 243.673 636.012 240.744 637.663 238.232C639.445 235.489 645.499 233.563 648.121 232.62C651.833 231.281 656.21 231.715 660.663 234.265L842.296 338.134C852.902 344.201 859.971 359.977 858.074 373.334L837.684 515.864C836.752 522.408 833.845 527.17 829.858 529.605C827.429 531.097 820.771 533.944 817.755 533.577C815.638 533.319 817.25 530.346 815.013 529.073L633.38 425.194C622.762 419.122 615.704 403.351 617.607 389.999L638.003 247.469Z" fill="#D0E7FF"/>
<path fill-rule="evenodd" clip-rule="evenodd" d="M632.557 249.641C634.46 236.284 644.622 230.36 655.223 236.438L836.856 340.328C847.462 346.395 854.531 362.171 852.628 375.528L832.244 518.058C830.341 531.41 820.179 537.335 809.572 531.262L627.939 427.383C617.322 421.31 610.264 405.54 612.167 392.182L632.557 249.641Z" fill="url(#paint24_linear_0_1)"/>
<path fill-rule="evenodd" clip-rule="evenodd" d="M618.43 398.716C618.594 397.558 619.477 397.07 620.393 397.619L821.89 513.154C822.373 513.502 822.754 513.973 822.994 514.518C823.233 515.063 823.321 515.663 823.25 516.254L822.701 519.77C822.537 520.933 821.659 521.416 820.738 520.867L619.285 405.337C618.8 404.989 618.417 404.518 618.177 403.972C617.937 403.425 617.848 402.824 617.92 402.232L618.43 398.716Z" fill="#6D6AFD"/>
<path fill-rule="evenodd" clip-rule="evenodd" d="M618.551 398.825C618.71 397.728 619.56 397.229 620.443 397.767L701.7 444.355C702.167 444.69 702.534 445.144 702.765 445.67C702.996 446.196 703.081 446.775 703.011 447.345L702.501 450.735C702.337 451.832 701.492 452.331 700.604 451.799L619.351 405.211C618.884 404.877 618.514 404.423 618.283 403.896C618.051 403.37 617.966 402.792 618.035 402.221L618.551 398.825Z" fill="#B269EB"/>
<path fill-rule="evenodd" clip-rule="evenodd" d="M698.185 330.245C698.64 327.064 701.053 325.654 703.576 327.102L759.514 359.094C762.036 360.537 763.715 364.289 763.265 367.47L755.719 420.68C755.269 423.861 752.85 425.266 750.328 423.823L694.39 391.831C691.862 390.389 690.184 386.637 690.633 383.455L698.185 330.245Z" fill="url(#paint25_linear_0_1)"/>
<path fill-rule="evenodd" clip-rule="evenodd" d="M730.086 353.4C720.407 347.865 711.16 353.257 709.427 365.441C707.694 377.624 714.122 391.99 723.807 397.531C733.492 403.071 742.727 397.673 744.46 385.463C746.193 373.252 739.76 358.935 730.086 353.4Z" fill="url(#paint26_linear_0_1)"/>
<path fill-rule="evenodd" clip-rule="evenodd" d="M721.131 359.319L718.076 381.36L736.749 381.87L721.131 359.319Z" fill="white"/>
<path fill-rule="evenodd" clip-rule="evenodd" d="M503.631 246.586C502.047 249.241 502.88 254.979 502.365 257.711C501.806 260.439 500.992 263.11 499.935 265.687C499.601 266.394 489.071 275.752 488.457 275.281C487.069 274.184 486.17 266.822 487.991 264.672C489.812 262.521 491.353 260.426 491.66 258.665C491.967 256.904 491.874 251.068 492.636 250.163C494.363 248.122 496.168 247.475 496.941 244.924L503.631 246.586Z" fill="url(#paint27_linear_0_1)"/>
<path fill-rule="evenodd" clip-rule="evenodd" d="M524.104 210.837C524.273 210.229 524.407 209.612 524.504 208.988C527.246 197.644 530.032 178.231 529.676 166.986C529.401 158.395 525.222 151.122 515.148 153.925C512.05 154.78 508.469 157.139 508.019 161.215C507.47 166.097 508.2 174.205 508.66 182.488C509.028 189.103 509 201.045 509.253 205.883C509.209 206.032 509.165 206.18 509.127 206.333C505.902 212.757 498.394 233.728 496.82 240.535C496.557 241.671 496.82 242.894 496.82 243.679C496.747 244.573 496.468 245.439 496.003 246.207C497.963 247.967 500.343 249.193 502.913 249.768C503.316 248.901 503.787 248.068 504.323 247.277C504.756 246.608 506.774 245.977 507.564 245.039C511.737 240.036 522.749 217.162 524.098 211.078C524.104 211.001 524.104 210.919 524.104 210.837Z" fill="url(#paint28_linear_0_1)"/>
<path opacity="0.3" fill-rule="evenodd" clip-rule="evenodd" d="M363.2 795.274L454.648 743.162C464.618 738.603 478.887 734.978 489.044 740.266C498.296 745.082 513.541 754.945 520.303 758.79C525.42 761.708 543.194 772.361 532.127 778.379C499.557 796.092 467.332 816.015 434.263 834.007C428.006 837.408 418.858 838.643 409.256 837.847C399.653 837.052 389.886 834.271 382.17 829.778C376.686 826.586 371.28 823.439 365.953 820.338C358.78 816.163 354.985 811.221 354.601 806.657C354.218 802.208 357.08 798.066 363.2 795.274Z" fill="#955CF1"/>
<path fill-rule="evenodd" clip-rule="evenodd" d="M396.9 792.515C398.688 792.471 404.72 786.799 410.44 789.663C417.301 793.102 430.337 790.058 436.912 791.637C438.086 791.917 440.378 791.056 440.828 791.862C442.248 794.38 443.619 798.154 440.131 800.639C437.57 802.455 432.075 804.857 428.478 806.125C424.639 807.48 418.113 809.613 413.731 810.299C408.872 811.056 406.656 811.396 404.841 812.773C402.242 814.084 399.56 814.644 398.057 814.419C394.855 813.909 391.125 812.033 389.414 808.385C388.866 807.216 388.866 802.12 389.48 798.812C389.979 796.201 391.4 793.228 392.54 790.453L396.9 792.515Z" fill="white"/>
<path fill-rule="evenodd" clip-rule="evenodd" d="M410.939 780.31C408.746 785.526 409.431 793.596 404.287 796.399C400.849 798.269 395.458 798.286 393.11 792.937C391.8 789.953 393.544 784.863 393.154 778.313L410.939 780.31Z" fill="#FFA495"/>
<path fill-rule="evenodd" clip-rule="evenodd" d="M412.371 788.39C416.314 789.536 427.178 788.768 434.082 789.322C437.044 789.564 439.692 789.542 441.08 792.23C442.352 794.698 441.683 796.821 438.804 798.856C436.237 800.672 431.889 802.74 428.286 804.018C424.447 805.373 417.921 807.507 413.539 808.193C408.68 808.955 406.47 809.29 404.649 810.672C402.05 811.978 399.368 812.543 397.871 812.318C396.027 812 394.285 811.254 392.782 810.139C391.28 809.024 390.061 807.572 389.222 805.9C388.674 804.731 388.674 800.014 389.294 796.706C389.422 796.047 389.59 795.397 389.798 794.759C390.347 789.58 392.052 787.485 393.664 788.368C395.858 789.586 396.703 791.769 397.542 793.563C397.811 794.225 398.218 794.822 398.735 795.316C399.252 795.809 399.868 796.188 400.541 796.426C403.179 797.26 405.592 795.784 407.122 793.519C407.986 791.87 408.596 790.1 408.932 788.269C408.932 788.094 408.932 787.918 408.932 787.721C409.448 783.195 411.674 783.585 411.318 784.545C410.961 785.505 411.175 787.463 412.371 788.39Z" fill="#193161"/>
<path fill-rule="evenodd" clip-rule="evenodd" d="M439.703 791.467C439.648 793.217 442.33 793.382 441.557 796.459C442.846 795.197 441.047 791.566 440.252 791.012C439.923 790.787 439.648 790.688 439.703 791.467Z" fill="white"/>
<path fill-rule="evenodd" clip-rule="evenodd" d="M441.76 774.561C443.405 773.903 447.14 766.503 453.491 767.221C456.057 767.512 460.176 766.848 464.355 765.658C471.023 763.76 480.313 757.797 481.904 758.774C485.359 760.902 485.638 764.775 483.214 768.291C481.426 770.88 478.054 774.325 475.114 776.761C471.988 779.344 467.563 783.305 463.68 785.455C460.011 787.49 458.794 787.309 456.183 790.836C454.198 792.959 451.867 794.227 450.381 794.517C446.542 795.258 441.058 792.811 439.04 790.255C437.773 786.152 435.574 782.268 436.983 776.113L441.76 774.561Z" fill="white"/>
<path fill-rule="evenodd" clip-rule="evenodd" d="M450.567 757.084C450.463 762.734 454.05 769.992 450.293 774.49C447.782 777.496 442.78 779.492 438.634 775.384C436.32 773.091 436.062 767.704 433.298 761.769L450.567 757.084Z" fill="#FFA495"/>
<path fill-rule="evenodd" clip-rule="evenodd" d="M462.643 763.974C463.027 763.875 463.406 763.771 463.784 763.661C470.453 761.763 479.364 757.166 480.949 758.143C484.404 760.271 485.062 762.778 482.638 766.294C480.85 768.884 477.478 772.328 474.533 774.758C471.412 777.348 466.987 781.303 463.104 783.458C459.435 785.494 458.218 785.313 455.607 788.84C453.622 790.963 451.291 792.23 449.805 792.515C445.966 793.261 440.29 790.793 438.288 788.236C437.345 785.181 436.051 782.274 435.947 778.434C435.398 773.415 435.738 770.858 437.921 770.919C441.985 771.039 443.663 773.179 445.341 774.21C448.955 776.464 451.373 773.552 451.971 769.948C452.041 768.353 451.929 766.756 451.637 765.186C451.584 765.018 451.521 764.854 451.45 764.693C450.266 760.304 452.459 759.849 452.503 760.853C452.482 761.796 452.814 762.712 453.434 763.423C454.054 764.133 454.917 764.586 455.854 764.693C458.07 765.049 460.861 764.122 462.643 763.974Z" fill="#193161"/>
<path fill-rule="evenodd" clip-rule="evenodd" d="M480.538 758.708C481.245 760.31 483.735 759.306 484.377 762.416C484.997 760.716 481.805 758.22 480.851 758.061C480.45 758 480.154 758.033 480.538 758.708Z" fill="white"/>
<path fill-rule="evenodd" clip-rule="evenodd" d="M446.723 604.532C448.187 620.895 456.386 673.172 454.105 687.522C450.677 709.102 451.653 735.17 451.692 758.077C451.143 767.699 437.883 772.729 434.033 766.612C430.945 746.146 426.547 728.214 424.759 716.842C422.752 704.111 423.416 688.636 426.646 680.265C425.319 671.121 419.089 647.533 413.884 631.186C412.003 625.289 401.359 606.233 412.376 587.302L446.723 604.532Z" fill="url(#paint29_linear_0_1)"/>
<path fill-rule="evenodd" clip-rule="evenodd" d="M451.906 751.933C451.906 753.628 451.856 756.217 451.856 757.885C451.308 767.507 437.883 772.729 434.033 766.612C433.808 765.104 433.485 763.606 433.238 762.131C438.415 767.71 448.56 760.463 451.906 751.933Z" fill="url(#paint30_linear_0_1)"/>
<g style="mix-blend-mode:multiply" opacity="0.3">
<path fill-rule="evenodd" clip-rule="evenodd" d="M454.456 677.78C450.14 699.42 437.938 728.329 431.28 750.09C427.814 731.439 419.138 699.695 426.64 680.265C425.889 675.054 423.542 665.163 420.696 654.593C426.47 643.622 420.953 634.905 423.679 619.486C438.963 616.82 415.897 598.163 448.237 617.812C451.165 641.044 453.852 655.646 454.456 677.78Z" fill="#1E2353"/>
</g>
<path fill-rule="evenodd" clip-rule="evenodd" d="M445.681 698.307C436.863 718.274 420.597 757.441 411.943 781.944C407.468 788.45 391.504 787.77 391.537 781.703C395.063 761.215 399.214 729.618 406.552 711.653C408.806 706.168 417.109 692.92 420.098 688.992C422.429 679.952 425.341 655.531 427.595 642.316C425.576 631.384 416.758 613.1 433.698 597.209C440.532 602.075 461.667 605.113 471.248 599.699C472.789 642.892 462.188 660.901 445.681 698.307Z" fill="url(#paint31_linear_0_1)"/>
<path fill-rule="evenodd" clip-rule="evenodd" d="M413.725 777.671C413.341 778.768 412.574 780.902 412.212 781.928C407.605 788.626 391.175 787.929 391.202 781.681C391.378 780.672 391.553 779.63 391.751 778.571C395.65 782.564 407.495 782.614 413.725 777.671Z" fill="url(#paint32_linear_0_1)"/>
<path fill-rule="evenodd" clip-rule="evenodd" d="M499.727 365.166C499.096 366.488 498.498 367.827 497.84 369.138L495.148 374.53C494.599 371.886 492.46 370.877 490.837 372.21C490.263 372.682 489.812 373.286 489.521 373.971C489.263 373.252 487.223 371.623 484.459 375.55C482.737 375.364 481.827 376.099 481.103 377.487C480.652 378.4 480.265 379.344 479.946 380.312C479.454 381.535 479.182 382.834 479.14 384.152C479.14 386.752 479.271 389.577 479.194 392.682C479.118 396.055 475.29 400.328 473.211 402.786L485.731 406.757C487.645 404.355 488.676 402.616 490.607 400.663C492.537 398.71 495.054 398.43 496.93 396.894C497.977 396.039 498.575 394.898 500.363 392.374C501.838 390.284 502.644 388.024 504.054 385.737C505.463 383.449 505.337 383.888 505.48 381.233C505.584 379.182 506.247 377.158 506.417 375.912C503.845 374.629 501.816 377.805 501.838 380.899C500.363 381.727 499.398 383.762 499.063 384.667C497.018 381.99 498.235 380.871 499.063 377.437C500.291 375.254 501.278 372.944 502.008 370.548C502.408 369.489 502.809 368.392 503.237 367.207C503.818 365.281 503.072 363.916 502.491 363.537C502.014 363.219 500.769 363.367 499.727 365.166Z" fill="url(#paint33_linear_0_1)"/>
<path fill-rule="evenodd" clip-rule="evenodd" d="M504.942 375.638C503.11 375.901 501.822 378.425 501.838 380.893C500.456 381.672 499.524 383.499 499.134 384.475C499.886 383.51 501.8 381.442 502.425 381.184C502.617 378.809 503.467 376.856 504.942 375.627V375.638ZM495.378 374.069L495.148 374.53C495.025 373.943 494.792 373.385 494.462 372.884C494.329 374.37 493.701 375.769 492.68 376.856C493.309 376.625 493.878 376.256 494.345 375.776C494.812 375.295 495.165 374.716 495.378 374.08V374.069ZM489.504 373.932C489.36 373.644 489.13 373.409 488.846 373.257C488.598 374.529 488.12 375.744 487.437 376.845C488.406 376.107 489.128 375.091 489.504 373.932V373.932ZM484.519 375.468L484.459 375.55C484.193 375.523 483.925 375.523 483.658 375.55C483.537 376.994 483.031 378.378 482.194 379.56C483.521 378.249 484.19 377.372 484.519 375.468Z" fill="#FF8978"/>
<path fill-rule="evenodd" clip-rule="evenodd" d="M452.448 437.509C458.75 426.538 463.685 412.775 472.487 401.623C473.222 400.69 474.95 399.977 475.58 399.001C476.502 397.582 477.416 396.189 478.322 394.821C482.446 394.892 487.514 397.015 490.991 400.531C490.497 401.994 490.013 403.457 489.537 404.92C488.989 406.615 490.047 410.241 489.537 411.936C485.512 426.345 480.35 440.412 474.099 454.004C465.369 465.266 426.569 537.587 406.283 511.344C404.457 502.019 406.925 494.246 411.619 486.692C414.219 482.512 418.167 478.864 420.827 476.105C427.238 469.495 442.873 447.389 452.448 437.509Z" fill="url(#paint34_linear_0_1)"/>
<path fill-rule="evenodd" clip-rule="evenodd" d="M409.283 545.886C410.704 558.69 406.854 571.284 410.769 582.974C410.945 584.186 411.06 588.926 411.263 590.215C413.846 605.36 445.873 620.687 472.586 606.123C472.734 604.247 472.586 602.283 472.707 598.805C472.213 595.558 473.617 592.074 473.606 590.094C473.568 581.866 471.007 577.637 472.235 568.465C474.736 549.814 485.073 531.876 479.364 517.197C478.141 514.043 475.986 512.518 473.551 510.56C467.239 505.486 434.614 488.859 424.693 487.685C395.951 483.988 407.742 531.992 409.283 545.886Z" fill="url(#paint35_linear_0_1)"/>
<g style="mix-blend-mode:multiply" opacity="0.35">
<path fill-rule="evenodd" clip-rule="evenodd" d="M475.125 554.97C478.832 541.257 483.675 528.311 479.353 517.225C478.131 514.07 475.975 512.545 473.54 510.587C467.228 505.513 468.056 519.156 458.185 517.982C456.265 536.21 465.276 552.793 475.125 554.97Z" fill="#6266D7"/>
</g>
<path fill-rule="evenodd" clip-rule="evenodd" d="M455.004 481.98C454.66 487.233 454.904 492.509 455.734 497.707C446.378 497.406 433.369 494.964 431.949 487.987C432.02 487.148 432.075 486.303 432.119 485.469C431.999 485.361 431.871 485.261 431.735 485.173C428.384 482.94 422.835 481.284 419.264 477.202C413.561 470.68 410.534 461.92 415.009 453.099C423.18 436.994 442.945 436.725 453.946 449.742C456.096 452.287 454.494 454.92 455.745 457.378C455.986 457.855 456.841 458.069 457.883 458.914C459.293 460.077 463.4 470.143 463.296 475.398C463.252 477.515 458.393 480.494 456.233 481.662C455.837 481.816 455.425 481.922 455.004 481.98V481.98Z" fill="#FFA698"/>
<path fill-rule="evenodd" clip-rule="evenodd" d="M455.004 481.98C454.66 487.233 454.904 492.509 455.733 497.707C446.378 497.406 433.369 494.964 431.949 487.987C432.02 487.148 432.075 486.303 432.119 485.469C431.993 485.359 431.85 485.277 431.735 485.173C424.606 478.513 434.137 470.91 446.158 477.455C447.056 478.967 448.363 480.194 449.928 480.994C451.493 481.795 453.253 482.137 455.004 481.98V481.98Z" fill="url(#paint36_linear_0_1)"/>
<path fill-rule="evenodd" clip-rule="evenodd" d="M463.274 475.398C463.23 476.325 459.402 477.718 457.79 477.932C458.887 467.987 449.416 466.467 450.842 456.752C451.697 450.916 445.698 448.804 448.05 444.531C450.245 445.976 452.22 447.731 453.913 449.742C456.063 452.287 454.461 454.92 455.712 457.378C455.953 457.855 456.808 458.069 457.85 458.914C459.271 460.077 463.515 470.148 463.274 475.398Z" fill="url(#paint37_linear_0_1)"/>
<path fill-rule="evenodd" clip-rule="evenodd" d="M450.376 471.355C450.195 469.128 449.279 468.7 448.544 469.292C447.809 469.885 447.025 471.87 447.25 474.163C447.612 477.855 451.039 481.168 453.397 478.179C450.814 479.55 449.602 476.237 449.493 473.9C449.416 472.315 449.816 470.982 450.376 471.355Z" fill="#FFB49C"/>
<path fill-rule="evenodd" clip-rule="evenodd" d="M449.553 472.781C450.929 473.818 451.56 474.52 451.538 475.107C451.538 475.513 451.187 476.122 449.98 475.694C449.563 474.784 449.414 473.773 449.553 472.781V472.781Z" fill="#FF9D8E"/>
<path fill-rule="evenodd" clip-rule="evenodd" d="M431.812 487.735C429.07 488.59 426.454 491.437 426.958 493.264C429.7 504.531 450.364 507.049 463.203 504.334C463.362 504.301 458.399 497.751 455.942 496.939C447.875 497.762 434.302 494.388 431.812 487.735Z" fill="#726CDE"/>
<path fill-rule="evenodd" clip-rule="evenodd" d="M430.819 487.038C427.392 483.385 421.6 481.64 417.882 477.389C414.164 473.138 410.205 466.758 412.656 460.148C408.34 446.571 423.076 435.798 435.519 433.351C444.414 431.601 449.728 441.141 445.868 447.613C449.196 451.344 449.087 456.275 448.856 457.542C448.143 461.421 448.242 461.931 449.482 464.811C450.463 467.104 452.904 472.644 448.483 469.133C445.632 466.868 443.636 471.876 444.601 475.337C445.282 477.5 445.494 479.784 445.22 482.035C444.392 489.281 432.722 489.073 430.819 487.038Z" fill="#562E65"/>
<path fill-rule="evenodd" clip-rule="evenodd" d="M416.775 454.004C413.83 440.839 431.121 434.19 437.883 434.031C444.727 433.878 450.09 445.14 441.974 448.936C436.446 451.519 425.483 446.462 416.775 454.004Z" fill="url(#paint38_linear_0_1)"/>
<path fill-rule="evenodd" clip-rule="evenodd" d="M553.855 472.627C553.537 473.481 553.352 474.378 553.306 475.288C552.746 476.586 552.316 477.937 552.023 479.32C551.601 481.448 551.76 483.127 551.694 485.963C551.696 487.344 551.892 488.717 552.275 490.044C550.63 493.291 548.003 495.288 545.563 497.965L553.465 503.999C556.8 501.805 559.405 499.484 562.278 497.576C564.609 496.654 565.426 496.133 566.117 495.381C567.949 493.472 573.34 487.8 573.647 485.573C573.992 483.094 573.334 477.345 572.775 474.229C571.343 466.215 568.294 457.8 567.768 461.514C567.006 462.402 567.631 469.643 567.148 470.718C565.278 472.874 564.406 473.757 562.042 476.33C560.589 477.158 559.629 478.02 558.927 478.212C558.116 478.431 557.672 477.866 557.644 477.153C557.617 476.44 558.121 474.959 558.538 472.885C558.538 469.451 557.688 467.504 555.851 467.685C555.42 467.705 555.01 467.878 554.695 468.173C554.38 468.467 554.179 468.864 554.129 469.292C553.937 470.115 553.986 471.223 553.855 472.627Z" fill="url(#paint39_linear_0_1)"/>
<path fill-rule="evenodd" clip-rule="evenodd" d="M474.199 506.254C485.079 507.932 506.078 519.907 520.567 526.396C528.65 514.877 539.251 501.075 545.793 496.429C546.545 495.881 548.459 494.783 549.045 494.092C549.994 492.929 550.921 491.733 551.787 490.505C555.873 491.053 561.796 496.177 561.719 498.585C561.061 499.792 560.387 501.053 559.706 502.353C559.246 503.242 559.416 505.189 559.158 506.193C556.964 514.257 544.708 532.886 539.004 541.202C535.714 546.002 534.551 548.821 532.319 550.253C528.738 552.557 523.934 551.301 514.677 548.975C506.889 547.016 481.739 542.436 470.168 536.331C462.007 532.025 455.745 524.263 458.986 515.332C461.037 509.605 467.19 505.173 474.199 506.254Z" fill="url(#paint40_linear_0_1)"/>
<path opacity="0.5" fill-rule="evenodd" clip-rule="evenodd" d="M773.63 173.738C766.5 169.8 758.982 175.115 759.058 185.401C759.091 190.727 761.351 196.207 764.916 199.663C765.779 200.504 766.746 201.23 767.795 201.824C774.891 205.757 782.393 200.442 782.338 190.206C782.338 184.868 780.079 179.367 776.531 175.944C775.661 175.091 774.686 174.354 773.63 173.749V173.738ZM766.78 206.651C765.373 205.857 764.073 204.886 762.914 203.761C758.115 199.153 755.11 191.769 755.039 184.605C754.951 170.809 765.069 163.634 774.622 168.933C776.053 169.739 777.371 170.729 778.543 171.879C783.326 176.476 786.331 183.859 786.364 191.029C786.424 204.786 776.322 211.945 766.78 206.651V206.651ZM799.323 194.929C800.968 195.856 801.977 198.275 801.516 200.36L799.778 208.44C799.334 210.502 797.623 211.424 795.939 210.502L795.089 210.031C794.81 209.858 794.499 209.746 794.174 209.699C793.85 209.653 793.519 209.674 793.204 209.761C792.888 209.848 792.593 209.999 792.338 210.205C792.083 210.411 791.873 210.667 791.722 210.958C791.25 211.752 790.733 212.519 790.175 213.256C789.309 214.392 789.166 216.207 789.83 217.831L790.279 218.928C791.135 221.013 790.619 223.393 789.144 224.194L783.336 227.326C782.968 227.518 782.556 227.612 782.141 227.597C781.726 227.583 781.322 227.461 780.967 227.244C780.096 226.716 779.428 225.91 779.07 224.957L778.615 223.887C778.26 222.945 777.597 222.15 776.734 221.632C776.307 221.388 775.822 221.263 775.33 221.27C774.502 221.27 773.685 221.243 772.829 221.166C771.496 221.04 770.378 221.989 770.038 223.569L769.813 224.622C769.369 226.679 767.663 227.606 765.974 226.685L759.453 223.064C757.808 222.143 756.799 219.723 757.26 217.661L757.49 216.608C757.643 215.786 757.607 214.941 757.386 214.135C757.165 213.329 756.763 212.584 756.212 211.956C755.51 211.183 754.858 210.382 754.205 209.559C753.869 209.112 753.445 208.739 752.96 208.462C752.61 208.245 752.21 208.123 751.798 208.108C751.387 208.093 750.978 208.184 750.613 208.374L749.851 208.769C749.481 208.961 749.069 209.054 748.653 209.04C748.237 209.025 747.831 208.904 747.476 208.687C746.604 208.16 745.935 207.354 745.579 206.399L742.189 198.116C741.334 196.026 741.849 193.645 743.319 192.85L744.092 192.428C745.238 191.808 745.825 190.233 745.584 188.489C745.425 187.392 745.315 186.262 745.244 185.148C745.14 183.426 744.229 181.791 742.957 181.084L742.107 180.612C740.462 179.69 739.453 177.271 739.913 175.209L741.652 167.128C742.102 165.044 743.813 164.117 745.491 165.044L746.341 165.51C746.62 165.683 746.931 165.796 747.255 165.843C747.58 165.89 747.911 165.869 748.227 165.782C748.543 165.695 748.838 165.544 749.093 165.337C749.348 165.131 749.557 164.874 749.708 164.583C750.18 163.79 750.696 163.025 751.255 162.29C752.116 161.193 752.258 159.361 751.595 157.737L751.145 156.64C750.295 154.534 750.805 152.169 752.286 151.352L758.137 148.187C758.506 147.997 758.918 147.905 759.333 147.92C759.748 147.936 760.152 148.058 760.506 148.275C761.378 148.8 762.046 149.604 762.404 150.557L762.853 151.654C763.208 152.596 763.871 153.391 764.734 153.908C765.16 154.157 765.646 154.283 766.138 154.27C766.975 154.251 767.811 154.279 768.645 154.353C769.977 154.506 771.091 153.557 771.431 151.977L771.655 150.924C772.105 148.84 773.816 147.918 775.494 148.84L782.02 152.46C783.666 153.382 784.675 155.801 784.214 157.88L783.989 158.938C783.834 159.754 783.867 160.594 784.087 161.395C784.306 162.196 784.706 162.935 785.256 163.557C785.958 164.329 786.631 165.139 787.274 165.987C787.609 166.435 788.033 166.808 788.519 167.084C788.869 167.3 789.269 167.422 789.68 167.438C790.091 167.455 790.5 167.365 790.866 167.178L791.639 166.761C792.008 166.569 792.42 166.476 792.835 166.49C793.25 166.505 793.654 166.626 794.009 166.843C794.88 167.37 795.55 168.173 795.911 169.125L799.295 177.414C800.145 179.526 799.641 181.884 798.16 182.702L797.387 183.119C796.241 183.738 795.654 185.313 795.901 187.041C796.054 188.138 796.167 189.25 796.241 190.376C796.267 191.188 796.489 191.982 796.888 192.69C797.287 193.397 797.852 193.998 798.533 194.441L799.323 194.929Z" fill="white"/>
<path fill-rule="evenodd" clip-rule="evenodd" d="M106.013 154.671C105.284 159.679 101.362 161.95 97.2384 159.652C93.1144 157.353 90.312 151.369 91.0414 146.36C91.7708 141.352 95.6755 139.229 99.8927 141.555C104.028 143.848 106.759 149.701 106.029 154.671H106.013ZM83.2924 199.164C84.0218 194.156 87.9264 191.989 92.1437 194.32C96.361 196.651 99.0153 202.466 98.2804 207.485C97.5456 212.505 93.6299 214.759 89.5059 212.461C85.3819 210.162 82.574 204.178 83.3088 199.175L83.2924 199.164ZM57.4075 156.344C56.6836 161.319 52.6967 163.448 48.5617 161.155C44.4267 158.862 41.6901 153.009 42.4195 148.033C43.1489 143.058 47.0974 140.776 51.194 143.058C55.2906 145.34 58.1259 151.341 57.391 156.344H57.4075ZM100.809 135.17C93.7615 131.259 87.0051 134.906 85.7547 143.431V144.062L61.1915 147.902C59.4476 143.102 56.212 138.988 52.1537 136.739C45.1067 132.833 38.4435 136.569 37.1986 145.088C35.9647 153.513 40.6043 163.585 47.6513 167.49C51.7095 169.745 55.5868 169.471 58.3672 167.183L78.1757 195.746L78.0277 196.202C76.7773 204.721 81.5375 214.759 88.579 218.665C95.6206 222.57 102.289 218.862 103.534 210.343C104.768 201.918 100.052 191.775 93.0815 187.908C88.0746 185.132 83.2705 186.202 80.4352 190.008L61.6686 162.658C62.1747 161.56 62.4988 160.387 62.6284 159.185C62.8564 157.848 62.9044 156.487 62.771 155.137L86.1277 151.138C87.4987 157.309 91.2937 163.113 96.3116 165.894C103.276 169.734 110.022 166.064 111.267 157.545C112.512 149.026 107.773 139.043 100.809 135.17Z" fill="url(#paint41_linear_0_1)"/>
<defs>
<linearGradient id="paint0_linear_0_1" x1="540.013" y1="223.02" x2="540.002" y2="293.882" gradientUnits="userSpaceOnUse">
<stop stop-color="#324179"/>
<stop offset="1" stop-color="#0C124D"/>
</linearGradient>
<linearGradient id="paint1_linear_0_1" x1="551.809" y1="227.54" x2="551.76" y2="348.249" gradientUnits="userSpaceOnUse">
<stop stop-color="#324179"/>
<stop offset="1" stop-color="#0C124D"/>
</linearGradient>
<linearGradient id="paint2_linear_0_1" x1="608.58" y1="347.037" x2="532.56" y2="808.307" gradientUnits="userSpaceOnUse">
<stop stop-color="#D1E8FF"/>
<stop offset="1" stop-color="#EAEFFF"/>
</linearGradient>
<linearGradient id="paint3_linear_0_1" x1="652.683" y1="259.74" x2="475.294" y2="827.854" gradientUnits="userSpaceOnUse">
<stop stop-color="#6D6AFE"/>
<stop offset="1" stop-color="#3FB0F7"/>
</linearGradient>
<linearGradient id="paint4_linear_0_1" x1="734.259" y1="630.928" x2="779.023" y2="536.8" gradientUnits="userSpaceOnUse">
<stop stop-color="#965CF2"/>
<stop offset="1" stop-color="#FF8ADC"/>
</linearGradient>
<linearGradient id="paint5_linear_0_1" x1="728.463" y1="464.427" x2="811.389" y2="343.321" gradientUnits="userSpaceOnUse">
<stop stop-color="#965CF2"/>
<stop offset="1" stop-color="#FF8ADC"/>
</linearGradient>
<linearGradient id="paint6_linear_0_1" x1="338.39" y1="587.9" x2="390.385" y2="474.525" gradientUnits="userSpaceOnUse">
<stop stop-color="#965CF2"/>
<stop offset="1" stop-color="#FF8ADC"/>
</linearGradient>
<linearGradient id="paint7_linear_0_1" x1="275.049" y1="464.405" x2="254.452" y2="523.436" gradientUnits="userSpaceOnUse">
<stop stop-color="#1C8EF4"/>
<stop offset="1" stop-color="#00CFDD"/>
</linearGradient>
<linearGradient id="paint8_linear_0_1" x1="345.01" y1="300.404" x2="387.126" y2="159.592" gradientUnits="userSpaceOnUse">
<stop stop-color="#965CF2"/>
<stop offset="1" stop-color="#FF8ADC"/>
</linearGradient>
<linearGradient id="paint9_linear_0_1" x1="332.928" y1="158.637" x2="284.925" y2="316.267" gradientUnits="userSpaceOnUse">
<stop stop-color="#6D6AFE"/>
<stop offset="1" stop-color="#3FB0F7"/>
</linearGradient>
<linearGradient id="paint10_linear_0_1" x1="737.934" y1="600.434" x2="752.012" y2="573.092" gradientUnits="userSpaceOnUse">
<stop stop-color="#965CF2"/>
<stop offset="1" stop-color="#FF8ADC"/>
</linearGradient>
<linearGradient id="paint11_linear_0_1" x1="568.503" y1="641.652" x2="534.626" y2="694.349" gradientUnits="userSpaceOnUse">
<stop stop-color="#FF66BC"/>
<stop offset="0.56" stop-color="#FF8ADC"/>
<stop offset="1" stop-color="#FFBBA8"/>
</linearGradient>
<linearGradient id="paint12_linear_0_1" x1="577.601" y1="660.512" x2="489.29" y2="664.3" gradientUnits="userSpaceOnUse">
<stop stop-color="#FF66BC"/>
<stop offset="0.56" stop-color="#FF8ADC"/>
<stop offset="1" stop-color="#FFBBA8"/>
</linearGradient>
<linearGradient id="paint13_linear_0_1" x1="698.69" y1="774.517" x2="714.99" y2="729.731" gradientUnits="userSpaceOnUse">
<stop stop-color="#965CF2"/>
<stop offset="1" stop-color="#FF8ADC"/>
</linearGradient>
<linearGradient id="paint14_linear_0_1" x1="702.923" y1="793.162" x2="696.97" y2="681.538" gradientUnits="userSpaceOnUse">
<stop stop-color="#965CF2"/>
<stop offset="1" stop-color="#FF8ADC"/>
</linearGradient>
<linearGradient id="paint15_linear_0_1" x1="482.874" y1="114.561" x2="482.99" y2="194.605" gradientUnits="userSpaceOnUse">
<stop stop-color="#5A2D68"/>
<stop offset="1" stop-color="#22043D"/>
</linearGradient>
<linearGradient id="paint16_linear_0_1" x1="485.112" y1="251.254" x2="481.684" y2="250.037" gradientUnits="userSpaceOnUse">
<stop stop-color="#FF8A78"/>
<stop offset="1" stop-color="#FFA799"/>
</linearGradient>
<linearGradient id="paint17_linear_0_1" x1="486.768" y1="224.013" x2="486.291" y2="155.285" gradientUnits="userSpaceOnUse">
<stop stop-color="#965CF2"/>
<stop offset="1" stop-color="#FF8ADC"/>
</linearGradient>
<linearGradient id="paint18_linear_0_1" x1="530.493" y1="208.275" x2="514.088" y2="156.116" gradientUnits="userSpaceOnUse">
<stop stop-color="#965CF2"/>
<stop offset="1" stop-color="#FF8ADC"/>
</linearGradient>
<linearGradient id="paint19_linear_0_1" x1="490.037" y1="149.004" x2="494.189" y2="154.044" gradientUnits="userSpaceOnUse">
<stop stop-color="#FF8A78"/>
<stop offset="1" stop-color="#FFA799"/>
</linearGradient>
<linearGradient id="paint20_linear_0_1" x1="548.831" y1="520.423" x2="468.906" y2="206.08" gradientUnits="userSpaceOnUse">
<stop stop-color="#965CF2"/>
<stop offset="1" stop-color="#FF8ADC"/>
</linearGradient>
<linearGradient id="paint21_linear_0_1" x1="554.167" y1="294.963" x2="525.662" y2="335.483" gradientUnits="userSpaceOnUse">
<stop stop-color="#6D6AFE"/>
<stop offset="1" stop-color="#3FB0F7"/>
</linearGradient>
<linearGradient id="paint22_linear_0_1" x1="462.698" y1="346.477" x2="456.038" y2="355.9" gradientUnits="userSpaceOnUse">
<stop stop-color="#6D6AFE"/>
<stop offset="1" stop-color="#3FB0F7"/>
</linearGradient>
<linearGradient id="paint23_linear_0_1" x1="468.122" y1="345.868" x2="447.712" y2="361.343" gradientUnits="userSpaceOnUse">
<stop stop-color="#6D6AFE"/>
<stop offset="1" stop-color="#3FB0F7"/>
</linearGradient>
<linearGradient id="paint24_linear_0_1" x1="745.754" y1="339.313" x2="715.621" y2="439.738" gradientUnits="userSpaceOnUse">
<stop stop-color="#6D6AFE"/>
<stop offset="1" stop-color="#3FB0F7"/>
</linearGradient>
<linearGradient id="paint25_linear_0_1" x1="722.765" y1="388.321" x2="736.591" y2="345.81" gradientUnits="userSpaceOnUse">
<stop stop-color="#965CF2"/>
<stop offset="1" stop-color="#FF8ADC"/>
</linearGradient>
<linearGradient id="paint26_linear_0_1" x1="720.577" y1="386.313" x2="733.178" y2="364.856" gradientUnits="userSpaceOnUse">
<stop stop-color="#6D6AFE"/>
<stop offset="1" stop-color="#3FB0F7"/>
</linearGradient>
<linearGradient id="paint27_linear_0_1" x1="497.999" y1="261.836" x2="495.125" y2="260.509" gradientUnits="userSpaceOnUse">
<stop stop-color="#FF8A78"/>
<stop offset="1" stop-color="#FFA799"/>
</linearGradient>
<linearGradient id="paint28_linear_0_1" x1="515.357" y1="233.41" x2="509.25" y2="167.781" gradientUnits="userSpaceOnUse">
<stop stop-color="#965CF2"/>
<stop offset="1" stop-color="#FF8ADC"/>
</linearGradient>
<linearGradient id="paint29_linear_0_1" x1="440.592" y1="627.467" x2="419.336" y2="729.111" gradientUnits="userSpaceOnUse">
<stop stop-color="#40457F"/>
<stop offset="1" stop-color="#1E2353"/>
</linearGradient>
<linearGradient id="paint30_linear_0_1" x1="445.264" y1="757.485" x2="437.288" y2="768.931" gradientUnits="userSpaceOnUse">
<stop stop-color="#3773B9"/>
<stop offset="1" stop-color="#003C76"/>
</linearGradient>
<linearGradient id="paint31_linear_0_1" x1="459.523" y1="638.943" x2="387.065" y2="737.741" gradientUnits="userSpaceOnUse">
<stop stop-color="#40457F"/>
<stop offset="1" stop-color="#1E2353"/>
</linearGradient>
<linearGradient id="paint32_linear_0_1" x1="404.419" y1="780.825" x2="392.364" y2="783.907" gradientUnits="userSpaceOnUse">
<stop stop-color="#3773B9"/>
<stop offset="1" stop-color="#003C76"/>
</linearGradient>
<linearGradient id="paint33_linear_0_1" x1="479.88" y1="400.411" x2="495.136" y2="378.615" gradientUnits="userSpaceOnUse">
<stop stop-color="#FF8A78"/>
<stop offset="1" stop-color="#FFA799"/>
</linearGradient>
<linearGradient id="paint34_linear_0_1" x1="448.11" y1="454.915" x2="465.743" y2="488" gradientUnits="userSpaceOnUse">
<stop stop-color="#A77EF7"/>
<stop offset="1" stop-color="#5E65D6"/>
</linearGradient>
<linearGradient id="paint35_linear_0_1" x1="444.672" y1="508.519" x2="434.203" y2="600.275" gradientUnits="userSpaceOnUse">
<stop stop-color="#A77EF7"/>
<stop offset="1" stop-color="#5E65D6"/>
</linearGradient>
<linearGradient id="paint36_linear_0_1" x1="445.22" y1="481.799" x2="441.956" y2="489.994" gradientUnits="userSpaceOnUse">
<stop stop-color="#FF8A78"/>
<stop offset="1" stop-color="#FFA799"/>
</linearGradient>
<linearGradient id="paint37_linear_0_1" x1="456.26" y1="458.864" x2="451.454" y2="468.09" gradientUnits="userSpaceOnUse">
<stop stop-color="#FFB89E"/>
<stop offset="1" stop-color="#FFA799"/>
</linearGradient>
<linearGradient id="paint38_linear_0_1" x1="446.076" y1="436.412" x2="424.85" y2="448.569" gradientUnits="userSpaceOnUse">
<stop stop-color="#8A4791"/>
<stop offset="1" stop-color="#562E65"/>
</linearGradient>
<linearGradient id="paint39_linear_0_1" x1="553.657" y1="491.212" x2="567.888" y2="472.423" gradientUnits="userSpaceOnUse">
<stop stop-color="#FF8A78"/>
<stop offset="1" stop-color="#FFA799"/>
</linearGradient>
<linearGradient id="paint40_linear_0_1" x1="509.368" y1="498.184" x2="513.675" y2="585.601" gradientUnits="userSpaceOnUse">
<stop stop-color="#A77EF7"/>
<stop offset="1" stop-color="#5E65D6"/>
</linearGradient>
<linearGradient id="paint41_linear_0_1" x1="69.7851" y1="178.703" x2="89.9249" y2="144.845" gradientUnits="userSpaceOnUse">
<stop stop-color="#6D6AFE"/>
<stop offset="1" stop-color="#3FB0F7"/>
</linearGradient>
</defs>
</svg>
